<svg width="124" height="124" viewBox="0 0 124 124" fill="none" xmlns="http://www.w3.org/2000/svg">
<rect width="124" height="124" fill="white"/>
<path d="M62.9738 23.4607C62.9779 23.4495 62.9829 23.4387 62.9857 23.4286C62.9816 23.4398 62.9779 23.4495 62.9738 23.4607ZM62.6694 23.4898C62.544 23.6304 62.4292 23.7829 62.3256 23.9395C62.085 24.3122 61.9099 24.7808 61.8947 25.2353C61.875 25.7726 62.0492 26.3024 62.2503 26.7873C62.376 27.087 62.5088 27.3852 62.6564 27.6734C62.7733 27.9048 62.8921 28.1489 62.9698 28.4017C62.9787 28.4345 62.9875 28.4628 62.9988 28.4957C63.0931 28.8592 62.9988 29.2641 62.793 29.5715C62.6318 29.8197 62.3739 29.9956 62.0952 30.0637C61.451 30.2205 60.8039 29.7942 60.6584 29.1049C60.5814 28.7394 60.6542 28.4376 60.7847 28.0949C60.8796 27.8421 60.9567 27.6076 60.9656 27.3497L60.9676 27.3614V27.3453C60.9676 27.3376 60.9676 27.333 60.9656 27.3266C60.9585 27.0289 60.8594 26.8832 60.8594 26.8832V26.8882C60.8594 27.3942 60.5191 27.8537 60.1574 28.1653C59.9478 28.3457 59.7249 28.5074 59.5239 28.702C59.3009 28.9199 59.1001 29.1594 58.9124 29.4122C58.5129 29.9536 58.2568 30.6073 58.1132 31.2781C57.9672 31.9643 57.9747 32.705 58.1244 33.394C58.6914 36.007 61.1402 37.638 63.6016 37.0381C65.7511 36.5154 67.197 34.4627 67.1504 32.2081C67.1595 31.1537 66.8282 29.9956 66.3826 29.0584C66.2544 28.7839 66.1043 28.5261 65.9323 28.2799C65.5593 27.7553 65.0998 27.312 64.6145 26.9071C63.9831 26.3824 63.2918 25.9274 62.93 25.1325C62.7158 24.6595 62.6544 24.1156 62.7598 23.605C62.7794 23.5077 62.8056 23.4127 62.8422 23.3179C62.8188 23.374 62.7061 23.4464 62.6694 23.4898Z" fill="url(#paint0_linear_1_21)"/>
<path d="M70.2017 23V26.9507C70.2236 27.1818 70.2346 27.4124 70.2346 27.6483C70.2346 31.8438 66.771 35.2473 62.4955 35.2473C58.2227 35.2473 54.7591 31.8438 54.7591 27.6483V23H24V69.9122V72.0432C24 72.0432 24 74.083 24.481 77.2126C25.6702 84.924 29.7846 99.2572 44.0321 106.066C46.446 107.468 49.0267 108.622 51.7222 109.459L53.1821 109.886C53.1845 109.883 53.1845 109.883 53.1872 109.881C55.9238 110.592 59.0922 111 62.4709 111C66.5004 111 70.2346 110.42 73.2882 109.435C73.2907 109.435 73.2964 109.432 73.3016 109.43C75.9835 108.601 78.5478 107.468 80.9533 106.072C95.2123 99.2709 99.329 84.9267 100.518 77.2126C100.999 74.083 100.999 72.0432 100.999 72.0432V23H70.2017Z" fill="url(#paint1_linear_1_21)"/>
<path d="M62.4999 35.2529V38.9805L76.3528 46.6732V62.4957L90.2517 70.3341V85.8542L62.4999 101.611L34.748 85.8542V54.5907L48.7844 46.8189V40.4836" stroke="#90D8F5" stroke-width="2"/>
<path d="M62.4996 48.3022V54.8482L48.8643 62.6788V77.9413L62.5798 85.8574L76.2953 77.9413V72.0042" stroke="#90D8F5" stroke-width="2"/>
<path d="M71.1619 88.7211L83.5138 81.747L90.2513 84.8814V54.8112L83.5138 50.7946L83.3534 45.2781" stroke="#90D8F5" stroke-width="2"/>
<path d="M35.0686 70.2622L42.3016 66.4419V59.1763L55.9226 50.8838V45.915" stroke="#90D8F5" stroke-width="2"/>
<path d="M41.8062 77.4231V82.146L55.9227 90.0305L48.8644 93.9728" stroke="#90D8F5" stroke-width="2"/>
<path d="M63.9436 77.2641C63.9436 77.2641 65.8233 76.2163 69.5828 74.1207L69.7186 58.4866L76.3528 62.4961" stroke="#90D8F5" stroke-width="2"/>
<path d="M62.4998 85.0615V111" stroke="#90D8F5" stroke-width="2"/>
<path d="M48.3826 78.2188L62.4991 70.3193V64.6926" stroke="#90D8F5" stroke-width="2"/>
<path d="M69.7185 58.0085V51.4841" stroke="#90D8F5" stroke-width="2"/>
<path d="M83.4338 81.6632V76.7566" stroke="#90D8F5" stroke-width="2"/>
<path d="M69.3976 53.8718C67.7141 53.8718 66.3496 52.5533 66.3496 50.9278C66.3496 49.3018 67.7141 47.9839 69.3976 47.9839C71.081 47.9839 72.4454 49.3018 72.4454 50.9278C72.4454 52.5533 71.081 53.8718 69.3976 53.8718Z" fill="#FFBA00"/>
<path d="M48.8648 42.414C47.1813 42.414 45.8167 41.096 45.8167 39.4695C45.8167 37.8436 47.1813 36.5261 48.8648 36.5261C50.5481 36.5261 51.9124 37.8436 51.9124 39.4695C51.9124 41.096 50.5481 42.414 48.8648 42.414Z" fill="#FFBA00"/>
<path d="M55.9221 46.2338C54.2392 46.2338 52.8748 44.9156 52.8748 43.2903C52.8748 41.6642 54.2392 40.3459 55.9221 40.3459C57.6058 40.3459 58.9705 41.6642 58.9705 43.2903C58.9705 44.9156 57.6058 46.2338 55.9221 46.2338Z" fill="#90D8F5"/>
<path d="M62.66 49.8933C60.9764 49.8933 59.6121 48.5753 59.6121 46.9497C59.6121 45.3233 60.9764 44.0054 62.66 44.0054C64.343 44.0054 65.7078 45.3233 65.7078 46.9497C65.7078 48.5753 64.343 49.8933 62.66 49.8933Z" fill="#90D8F5"/>
<path d="M83.354 45.9145C81.6706 45.9145 80.3059 44.5962 80.3059 42.971C80.3059 41.3449 81.6706 40.0266 83.354 40.0266C85.0369 40.0266 86.4017 41.3449 86.4017 42.971C86.4017 44.5962 85.0369 45.9145 83.354 45.9145Z" fill="#FFBA00"/>
<path d="M62.66 65.488C60.9764 65.488 59.6121 64.17 59.6121 62.5437C59.6121 60.9185 60.9764 59.6001 62.66 59.6001C64.343 59.6001 65.7078 60.9185 65.7078 62.5437C65.7078 64.17 64.343 65.488 62.66 65.488Z" fill="#90D8F5"/>
<path d="M41.806 77.7416C40.1227 77.7416 38.7578 76.4231 38.7578 74.7977C38.7578 73.1713 40.1227 71.8538 41.806 71.8538C43.4894 71.8538 44.8536 73.1713 44.8536 74.7977C44.8536 76.4231 43.4894 77.7416 41.806 77.7416Z" fill="#FFBA00"/>
<path d="M83.5145 77.2643C81.8309 77.2643 80.4663 75.9458 80.4663 74.3204C80.4663 72.694 81.8309 71.3765 83.5145 71.3765C85.1974 71.3765 86.5621 72.694 86.5621 74.3204C86.5621 75.9458 85.1974 77.2643 83.5145 77.2643Z" fill="#90D8F5"/>
<path d="M77.0978 73.9225C75.4142 73.9225 74.0496 72.6052 74.0496 70.9789C74.0496 69.3526 75.4142 68.0347 77.0978 68.0347C78.7806 68.0347 80.1453 69.3526 80.1453 70.9789C80.1453 72.6052 78.7806 73.9225 77.0978 73.9225Z" fill="#90D8F5"/>
<path d="M70.1996 92.6994C68.516 92.6994 67.1516 91.3811 67.1516 89.7554C67.1516 88.1292 68.516 86.8115 70.1996 86.8115C71.883 86.8115 73.2474 88.1292 73.2474 89.7554C73.2474 91.3811 71.883 92.6994 70.1996 92.6994Z" fill="#FFBA00"/>
<path d="M62.9809 81.0834C61.2975 81.0834 59.9326 79.7652 59.9326 78.1393C59.9326 76.514 61.2975 75.1956 62.9809 75.1956C64.6637 75.1956 66.0284 76.514 66.0284 78.1393C66.0284 79.7652 64.6637 81.0834 62.9809 81.0834Z" fill="#FFBA00"/>
<defs>
<linearGradient id="paint0_linear_1_21" x1="427.35" y1="405.699" x2="869.498" y2="1086" gradientUnits="userSpaceOnUse">
<stop stop-color="#FFCB00"/>
<stop offset="1" stop-color="#FFA603"/>
</linearGradient>
<linearGradient id="paint1_linear_1_21" x1="3873.68" y1="8823.01" x2="3873.68" y2="22.9998" gradientUnits="userSpaceOnUse">
<stop stop-color="#0A517C"/>
<stop offset="1" stop-color="#0B639A"/>
</linearGradient>
</defs>
</svg>
