<svg width="410" height="410" viewBox="0 0 410 410" fill="none" xmlns="http://www.w3.org/2000/svg">
<rect width="410" height="410" rx="70" fill="black"/>
<circle cx="256.25" cy="275.469" r="25.625" fill="#FF6969"/>
<path d="M62.6531 302.298C61.6625 302.298 60.8594 301.495 60.8594 300.504V300.504C60.8594 299.514 61.6625 298.711 62.6531 298.711H64.0881C67.6756 298.711 71.3827 298.232 75.2094 297.276C79.2752 296.08 82.6235 293.808 85.2544 290.459C88.1244 287.111 89.5594 282.089 89.5594 275.392V135.479C89.5594 129.022 88.1244 124.239 85.2544 121.129C82.3844 118.02 78.9165 115.987 74.8506 115.031C71.024 114.074 67.4365 113.596 64.0881 113.596V113.596C63.2956 113.596 62.6531 112.953 62.6531 112.161V111.802C62.6531 110.811 63.4562 110.008 64.4469 110.008H128.663C137.183 110.008 144.089 116.915 144.089 125.434V140.444C144.089 140.674 144.276 140.861 144.506 140.861V140.861C144.686 140.861 144.845 140.745 144.903 140.575C147.522 132.812 150.958 126.45 155.211 121.488C159.516 116.226 164.897 112.28 171.354 109.649C178.051 107.019 185.824 105.703 194.673 105.703C208.066 105.703 218.231 108.454 225.167 113.954C232.342 119.455 235.929 127.109 235.929 136.914C235.929 147.199 231.864 155.211 223.732 160.951C222.096 162.105 220.339 163.144 218.461 164.066C204.15 171.096 191.598 156.36 187.857 140.861V140.861C186.183 133.925 183.791 129.022 180.682 126.152C177.812 123.282 174.105 121.847 169.561 121.847C165.973 121.847 162.625 122.804 159.516 124.717C156.406 126.63 153.656 129.859 151.264 134.403C149.112 138.708 147.318 144.568 145.883 151.982C144.687 159.157 144.089 168.245 144.089 179.247V275.392C144.089 282.089 145.405 287.111 148.036 290.459C150.906 293.808 154.374 296.08 158.439 297.276C162.505 298.232 166.212 298.711 169.561 298.711H178.888C179.879 298.711 180.682 299.514 180.682 300.504V300.504C180.682 301.495 179.879 302.298 178.888 302.298H62.6531Z" fill="white"/>
</svg>
