<svg width="128" height="128" viewBox="0 0 128 128" fill="none" xmlns="http://www.w3.org/2000/svg">
<rect width="128" height="128" rx="20" fill="white"/>
<circle cx="80" cy="86" r="8" fill="#FF6969"/>
<path d="M19 94.376V93.256H20.008C21.128 93.256 22.2853 93.1067 23.48 92.808C24.7493 92.4347 25.7947 91.7253 26.616 90.68C27.512 89.6347 27.96 88.0667 27.96 85.976V42.296C27.96 40.28 27.512 38.7867 26.616 37.816C25.72 36.8453 24.6373 36.2107 23.368 35.912C22.1733 35.6133 21.0533 35.464 20.008 35.464H19.56V34.344H44.984V43.976H45.208C46.0293 41.512 47.112 39.496 48.456 37.928C49.8 36.2853 51.48 35.0533 53.496 34.232C55.5867 33.4107 58.0133 33 60.776 33C64.9573 33 68.1307 33.8587 70.296 35.576C72.536 37.2933 73.656 39.6827 73.656 42.744C73.656 45.9547 72.3867 48.456 69.848 50.248C67.3093 52.04 63.8373 52.936 59.432 52.936C59.432 49.128 59.1707 46.1413 58.648 43.976C58.1253 41.8107 57.3787 40.28 56.408 39.384C55.512 38.488 54.3547 38.04 52.936 38.04C51.816 38.04 50.7707 38.3387 49.8 38.936C48.8293 39.5333 47.9707 40.5413 47.224 41.96C46.552 43.304 45.992 45.1333 45.544 47.448C45.1707 49.688 44.984 52.5253 44.984 55.96V85.976C44.984 88.0667 45.3947 89.6347 46.216 90.68C47.112 91.7253 48.1947 92.4347 49.464 92.808C50.7333 93.1067 51.8907 93.256 52.936 93.256H56.408V94.376H19Z" fill="black"/>
</svg>
