<svg width="624" height="142" viewBox="0 0 624 142" fill="none" xmlns="http://www.w3.org/2000/svg">
<path d="M0 85.12V84H1.008C2.128 84 3.28533 83.8507 4.48 83.552C5.74933 83.1787 6.79467 82.4693 7.616 81.424C8.512 80.3787 8.96 78.8107 8.96 76.72V33.04C8.96 31.024 8.512 29.5307 7.616 28.56C6.72 27.5893 5.63733 26.9547 4.368 26.656C3.17333 26.3573 2.05333 26.208 1.008 26.208H0.56V25.088H25.984V34.72H26.208C27.0293 32.256 28.112 30.24 29.456 28.672C30.8 27.0293 32.48 25.7973 34.496 24.976C36.5867 24.1547 39.0133 23.744 41.776 23.744C45.9573 23.744 49.1307 24.6027 51.296 26.32C53.536 28.0373 54.656 30.4267 54.656 33.488C54.656 36.6987 53.3867 39.2 50.848 40.992C48.3093 42.784 44.8373 43.68 40.432 43.68C40.432 39.872 40.1707 36.8853 39.648 34.72C39.1253 32.5547 38.3787 31.024 37.408 30.128C36.512 29.232 35.3547 28.784 33.936 28.784C32.816 28.784 31.7707 29.0827 30.8 29.68C29.8293 30.2773 28.9707 31.2853 28.224 32.704C27.552 34.048 26.992 35.8773 26.544 38.192C26.1707 40.432 25.984 43.2693 25.984 46.704V76.72C25.984 78.8107 26.3947 80.3787 27.216 81.424C28.112 82.4693 29.1947 83.1787 30.464 83.552C31.7333 83.8507 32.8907 84 33.936 84H37.408V85.12H0Z" fill="black"/>
<path d="M90.545 86.24C81.585 86.24 74.529 83.664 69.377 78.512C64.225 73.2853 61.649 65.408 61.649 54.88C61.649 44.352 64.113 36.512 69.041 31.36C73.969 26.208 81.249 23.632 90.881 23.632C99.841 23.632 106.897 26.208 112.049 31.36C117.201 36.512 119.777 44.352 119.777 54.88C119.777 65.408 117.276 73.2853 112.273 78.512C107.345 83.664 100.102 86.24 90.545 86.24ZM90.769 85.12C93.681 85.12 95.9583 84.1493 97.601 82.208C99.3183 80.2667 100.55 77.0933 101.297 72.688C102.044 68.2827 102.417 62.3467 102.417 54.88C102.417 47.4133 102.044 41.5147 101.297 37.184C100.55 32.7787 99.3183 29.6053 97.601 27.664C95.8837 25.7227 93.6063 24.752 90.769 24.752C87.857 24.752 85.5423 25.7227 83.825 27.664C82.1077 29.6053 80.8757 32.7787 80.129 37.184C79.3823 41.5147 79.009 47.4133 79.009 54.88C79.009 62.3467 79.3823 68.2827 80.129 72.688C80.8757 77.0933 82.1077 80.2667 83.825 82.208C85.5423 84.1493 87.857 85.12 90.769 85.12Z" fill="black"/>
<path d="M153.185 86.24C148.182 86.24 143.963 85.1573 140.529 82.992C137.169 80.752 134.593 77.3173 132.801 72.688C131.083 68.0587 130.225 62.1227 130.225 54.88C130.225 47.6373 131.083 41.7387 132.801 37.184C134.593 32.6293 137.131 29.2693 140.417 27.104C143.777 24.864 147.846 23.744 152.624 23.744C157.104 23.744 160.801 25.0133 163.713 27.552C166.625 30.016 168.491 33.8613 169.312 39.088H169.536C169.536 36.1013 169.499 33.3387 169.424 30.8C169.424 28.1867 169.424 25.9093 169.424 23.968C169.424 21.952 169.424 20.3467 169.424 19.152V7.952C169.424 5.936 168.977 4.44267 168.081 3.472C167.185 2.50133 166.102 1.86667 164.833 1.568C163.638 1.26933 162.518 1.12 161.473 1.12H160.129V0H186.449V76.72C186.449 78.8107 186.859 80.3787 187.68 81.424C188.576 82.4693 189.659 83.1787 190.928 83.552C192.198 83.8507 193.355 84 194.4 84H195.745V85.12H169.536V69.776H169.312C168.566 75.4507 166.737 79.632 163.825 82.32C160.913 84.9333 157.366 86.24 153.185 86.24ZM157.889 83.44C161.697 83.44 164.571 80.9013 166.512 75.824C168.454 70.7467 169.424 63.2427 169.424 53.312C169.424 47.4133 168.977 42.4853 168.081 38.528C167.185 34.5707 165.878 31.584 164.161 29.568C162.443 27.552 160.278 26.544 157.665 26.544C155.425 26.544 153.52 27.552 151.952 29.568C150.459 31.584 149.339 34.5707 148.592 38.528C147.846 42.4853 147.473 47.4133 147.473 53.312C147.473 59.9573 147.846 65.52 148.592 70C149.414 74.48 150.608 77.84 152.176 80.08C153.744 82.32 155.649 83.44 157.889 83.44Z" fill="black"/>
<path d="M232.639 86.24C222.932 86.24 215.578 83.552 210.575 78.176C205.572 72.7253 203.071 65.1467 203.071 55.44C203.071 44.912 205.498 36.9973 210.351 31.696C215.204 26.32 222.036 23.632 230.847 23.632C238.986 23.632 245.37 25.9093 249.999 30.464C254.703 35.0187 257.055 41.7387 257.055 50.624V53.312H220.319C220.319 60.8533 220.804 66.976 221.775 71.68C222.82 76.3093 224.426 79.7067 226.591 81.872C228.831 83.9627 231.706 85.008 235.215 85.008C237.828 85.008 240.18 84.448 242.271 83.328C244.436 82.208 246.228 80.416 247.647 77.952C249.14 75.488 250.111 72.2027 250.559 68.096C252.052 68.3947 253.098 69.0293 253.695 70C254.367 70.9707 254.703 72.0907 254.703 73.36C254.703 75.4507 253.882 77.504 252.239 79.52C250.596 81.4613 248.132 83.0667 244.847 84.336C241.636 85.6053 237.567 86.24 232.639 86.24ZM240.031 52.192C240.031 45.3973 239.77 40.0213 239.247 36.064C238.724 32.032 237.791 29.1573 236.447 27.44C235.103 25.648 233.236 24.752 230.847 24.752C228.458 24.752 226.479 25.648 224.911 27.44C223.343 29.1573 222.186 32.032 221.439 36.064C220.767 40.0213 220.394 45.3973 220.319 52.192H240.031Z" fill="black"/>
<path d="M263.695 85.12V84H265.039C266.159 84 267.317 83.8507 268.511 83.552C269.781 83.1787 270.826 82.4693 271.647 81.424C272.543 80.3787 272.991 78.8107 272.991 76.72V7.952C272.991 5.936 272.543 4.44267 271.647 3.472C270.751 2.50133 269.669 1.86667 268.399 1.568C267.205 1.26933 266.085 1.12 265.039 1.12H263.695V0H290.015V22.512C290.015 23.9307 290.015 25.3493 290.015 26.768C290.015 28.1867 290.015 29.6053 290.015 31.024C290.015 32.4427 289.978 33.8987 289.903 35.392H290.127C291.023 32.032 292.293 29.5307 293.935 27.888C295.653 26.1707 297.594 25.0507 299.759 24.528C301.925 23.9307 304.09 23.632 306.255 23.632C312.826 23.632 317.717 25.3493 320.927 28.784C324.138 32.2187 325.743 37.7067 325.743 45.248V76.048C325.743 78.3627 326.005 80.08 326.527 81.2C327.125 82.32 327.983 83.0667 329.103 83.44C330.223 83.8133 331.605 84 333.247 84H333.583V85.12H308.719V41.552C308.719 36.6987 308.085 33.0773 306.815 30.688C305.546 28.224 303.381 26.992 300.319 26.992C297.706 26.992 295.615 27.888 294.047 29.68C292.554 31.472 291.509 33.9733 290.911 37.184C290.314 40.3947 290.015 44.0907 290.015 48.272V76.72C290.015 78.8107 290.426 80.3787 291.247 81.424C292.143 82.4693 293.226 83.1787 294.495 83.552C295.765 83.8507 296.922 84 297.967 84H299.311V85.12H263.695Z" fill="#373737"/>
<path d="M370.654 86.24C361.694 86.24 354.638 83.664 349.486 78.512C344.334 73.2853 341.758 65.408 341.758 54.88C341.758 44.352 344.222 36.512 349.15 31.36C354.078 26.208 361.358 23.632 370.99 23.632C379.95 23.632 387.006 26.208 392.158 31.36C397.31 36.512 399.886 44.352 399.886 54.88C399.886 65.408 397.385 73.2853 392.382 78.512C387.454 83.664 380.212 86.24 370.654 86.24ZM370.878 85.12C373.79 85.12 376.068 84.1493 377.71 82.208C379.428 80.2667 380.66 77.0933 381.406 72.688C382.153 68.2827 382.526 62.3467 382.526 54.88C382.526 47.4133 382.153 41.5147 381.406 37.184C380.66 32.7787 379.428 29.6053 377.71 27.664C375.993 25.7227 373.716 24.752 370.878 24.752C367.966 24.752 365.652 25.7227 363.934 27.664C362.217 29.6053 360.985 32.7787 360.238 37.184C359.492 41.5147 359.118 47.4133 359.118 54.88C359.118 62.3467 359.492 68.2827 360.238 72.688C360.985 77.0933 362.217 80.2667 363.934 82.208C365.652 84.1493 367.966 85.12 370.878 85.12Z" fill="#373737"/>
<path d="M435.422 86.24C428.851 86.24 423.961 84.5227 420.75 81.088C417.539 77.6533 415.934 72.1653 415.934 64.624V34.16C415.934 31.8453 415.635 30.128 415.038 29.008C414.515 27.888 413.694 27.1413 412.574 26.768C411.529 26.3947 410.147 26.208 408.43 26.208H408.094V25.088H432.958V68.32C432.958 71.5307 433.219 74.2187 433.742 76.384C434.339 78.5493 435.235 80.192 436.43 81.312C437.699 82.3573 439.342 82.88 441.358 82.88C444.046 82.88 446.137 81.984 447.63 80.192C449.123 78.4 450.169 75.8987 450.766 72.688C451.363 69.4773 451.662 65.7813 451.662 61.6V33.488C451.662 31.3227 451.214 29.7547 450.318 28.784C449.497 27.7387 448.451 27.0667 447.182 26.768C445.987 26.3947 444.83 26.208 443.71 26.208H443.262V25.088H468.686V77.168C468.686 79.1093 469.134 80.6027 470.03 81.648C470.926 82.6187 471.971 83.2533 473.166 83.552C474.435 83.8507 475.593 84 476.638 84H477.086V85.12H451.662V74.592H451.438C450.766 77.056 449.87 79.072 448.75 80.64C447.63 82.208 446.361 83.4027 444.942 84.224C443.523 84.9707 441.993 85.4933 440.35 85.792C438.707 86.0907 437.065 86.24 435.422 86.24Z" fill="#373737"/>
<path d="M504.637 86.24C499.784 86.24 495.752 85.68 492.541 84.56C489.405 83.3653 487.053 81.7973 485.485 79.856C483.992 77.84 483.245 75.6 483.245 73.136C483.245 70.672 483.842 68.8427 485.037 67.648C486.232 66.4533 487.65 65.6693 489.293 65.296C490.936 64.848 492.392 64.624 493.661 64.624C493.661 69.7013 494.072 73.7707 494.893 76.832C495.789 79.8187 497.133 81.9467 498.925 83.216C500.792 84.4853 503.144 85.12 505.981 85.12C509.565 85.12 512.44 84.224 514.605 82.432C516.845 80.64 517.965 77.84 517.965 74.032C517.965 71.4933 517.442 69.5147 516.397 68.096C515.352 66.6773 513.709 65.4453 511.469 64.4C509.304 63.28 506.504 62.0853 503.069 60.816C499.709 59.5467 496.61 58.1653 493.773 56.672C490.936 55.1787 488.658 53.2747 486.941 50.96C485.224 48.5707 484.365 45.472 484.365 41.664C484.365 35.616 486.53 31.136 490.861 28.224C495.266 25.2373 501.165 23.744 508.557 23.744C513.261 23.744 517.032 24.2667 519.869 25.312C522.706 26.2827 524.76 27.5893 526.029 29.232C527.373 30.8747 528.045 32.6667 528.045 34.608C528.045 36.7733 527.149 38.528 525.357 39.872C523.64 41.216 520.728 41.888 516.621 41.888C516.621 35.5413 515.8 31.136 514.157 28.672C512.514 26.1333 510.05 24.864 506.765 24.864C505.197 24.864 503.629 25.1627 502.061 25.76C500.493 26.3573 499.186 27.4027 498.141 28.896C497.096 30.3147 496.573 32.368 496.573 35.056C496.573 37.4453 497.096 39.3493 498.141 40.768C499.261 42.1867 501.016 43.456 503.405 44.576C505.794 45.696 509.005 47.0027 513.037 48.496C516.472 49.7653 519.458 51.184 521.997 52.752C524.536 54.2453 526.514 56.1493 527.933 58.464C529.352 60.704 530.061 63.5787 530.061 67.088C530.061 72.9867 527.896 77.6533 523.565 81.088C519.309 84.5227 513 86.24 504.637 86.24Z" fill="#373737"/>
<path d="M569.404 86.24C559.698 86.24 552.343 83.552 547.341 78.176C542.338 72.7253 539.836 65.1467 539.836 55.44C539.836 44.912 542.263 36.9973 547.117 31.696C551.97 26.32 558.802 23.632 567.612 23.632C575.751 23.632 582.135 25.9093 586.765 30.464C591.469 35.0187 593.82 41.7387 593.82 50.624V53.312H557.084C557.084 60.8533 557.57 66.976 558.541 71.68C559.586 76.3093 561.191 79.7067 563.357 81.872C565.597 83.9627 568.471 85.008 571.981 85.008C574.594 85.008 576.946 84.448 579.036 83.328C581.202 82.208 582.994 80.416 584.412 77.952C585.906 75.488 586.877 72.2027 587.325 68.096C588.818 68.3947 589.863 69.0293 590.461 70C591.133 70.9707 591.469 72.0907 591.469 73.36C591.469 75.4507 590.647 77.504 589.005 79.52C587.362 81.4613 584.898 83.0667 581.612 84.336C578.402 85.6053 574.332 86.24 569.404 86.24ZM576.797 52.192C576.797 45.3973 576.535 40.0213 576.013 36.064C575.49 32.032 574.557 29.1573 573.213 27.44C571.869 25.648 570.002 24.752 567.612 24.752C565.223 24.752 563.245 25.648 561.677 27.44C560.109 29.1573 558.951 32.032 558.205 36.064C557.533 40.0213 557.159 45.3973 557.084 52.192H576.797Z" fill="#373737"/>
<circle cx="615.76" cy="78.1201" r="8" fill="#FF6969"/>
<path d="M15.4419 141.624C13.3419 141.624 11.3959 141.232 9.60393 140.448C7.81193 139.664 6.25793 138.6 4.94193 137.256C3.65393 135.884 2.64593 134.274 1.91793 132.426C1.18993 130.578 0.825928 128.604 0.825928 126.504V126.42C0.825928 124.348 1.18993 122.388 1.91793 120.54C2.67393 118.692 3.69593 117.082 4.98393 115.71C6.29993 114.31 7.85393 113.218 9.64593 112.434C11.4379 111.622 13.3979 111.216 15.5259 111.216C16.8419 111.216 18.0319 111.328 19.0959 111.552C20.1599 111.776 21.1399 112.098 22.0359 112.518C22.9599 112.938 23.8139 113.442 24.5979 114.03C25.4099 114.59 26.1939 115.22 26.9499 115.92L25.3959 117.516C24.7519 116.9 24.0799 116.326 23.3799 115.794C22.6799 115.262 21.9239 114.814 21.1119 114.45C20.3279 114.058 19.4599 113.75 18.5079 113.526C17.5839 113.302 16.5759 113.19 15.4839 113.19C13.7199 113.19 12.0819 113.526 10.5699 114.198C9.05793 114.87 7.74193 115.808 6.62193 117.012C5.52993 118.188 4.66193 119.574 4.01793 121.17C3.40193 122.766 3.09393 124.488 3.09393 126.336V126.42C3.09393 128.268 3.41593 130.004 4.05993 131.628C4.70393 133.224 5.57193 134.624 6.66393 135.828C7.78393 137.004 9.09993 137.942 10.6119 138.642C12.1239 139.314 13.7619 139.65 15.5259 139.65C17.6539 139.65 19.5019 139.258 21.0699 138.474C22.6379 137.69 24.1639 136.556 25.6479 135.072L27.1179 136.5C26.3339 137.256 25.5219 137.956 24.6819 138.6C23.8699 139.216 22.9879 139.748 22.0359 140.196C21.1119 140.644 20.1039 140.994 19.0119 141.246C17.9199 141.498 16.7299 141.624 15.4419 141.624Z" fill="black"/>
<path d="M72.6157 141.624C70.3757 141.624 68.3457 141.218 66.5257 140.406C64.7337 139.566 63.1937 138.46 61.9057 137.088C60.6177 135.688 59.6237 134.078 58.9237 132.258C58.2237 130.438 57.8737 128.52 57.8737 126.504V126.42C57.8737 124.404 58.2237 122.486 58.9237 120.666C59.6517 118.818 60.6597 117.194 61.9477 115.794C63.2357 114.394 64.7897 113.288 66.6097 112.476C68.4297 111.636 70.4597 111.216 72.6997 111.216C74.9117 111.216 76.9277 111.636 78.7477 112.476C80.5677 113.288 82.1217 114.394 83.4097 115.794C84.6977 117.166 85.6917 118.762 86.3917 120.582C87.0917 122.402 87.4417 124.32 87.4417 126.336V126.42C87.4417 128.436 87.0777 130.368 86.3497 132.216C85.6497 134.036 84.6557 135.646 83.3677 137.046C82.0797 138.446 80.5117 139.566 78.6637 140.406C76.8437 141.218 74.8277 141.624 72.6157 141.624ZM72.6997 139.65C74.5197 139.65 76.1857 139.314 77.6977 138.642C79.2377 137.942 80.5537 137.004 81.6457 135.828C82.7657 134.624 83.6337 133.224 84.2497 131.628C84.8657 130.032 85.1737 128.324 85.1737 126.504V126.42C85.1737 124.6 84.8517 122.892 84.2077 121.296C83.5917 119.672 82.7237 118.272 81.6037 117.096C80.5117 115.892 79.1957 114.94 77.6557 114.24C76.1157 113.54 74.4357 113.19 72.6157 113.19C70.7957 113.19 69.1157 113.54 67.5757 114.24C66.0637 114.912 64.7477 115.85 63.6277 117.054C62.5357 118.23 61.6817 119.616 61.0657 121.212C60.4497 122.808 60.1417 124.516 60.1417 126.336V126.42C60.1417 128.24 60.4497 129.962 61.0657 131.586C61.7097 133.182 62.5777 134.582 63.6697 135.786C64.7897 136.962 66.1197 137.9 67.6597 138.6C69.1997 139.3 70.8797 139.65 72.6997 139.65Z" fill="black"/>
<path d="M120.899 111.72H122.957L143.243 137.298V111.72H145.343V141.12H143.705L122.999 114.996V141.12H120.899V111.72Z" fill="black"/>
<path d="M190.075 141.54C187.723 141.54 185.595 141.148 183.691 140.364C181.815 139.58 179.995 138.404 178.231 136.836L179.659 135.198C180.471 135.954 181.269 136.612 182.053 137.172C182.865 137.704 183.691 138.152 184.531 138.516C185.371 138.852 186.253 139.118 187.177 139.314C188.101 139.482 189.109 139.566 190.201 139.566C191.293 139.566 192.301 139.426 193.225 139.146C194.149 138.838 194.933 138.432 195.577 137.928C196.221 137.396 196.725 136.78 197.089 136.08C197.453 135.352 197.635 134.568 197.635 133.728V133.644C197.635 132.86 197.509 132.16 197.257 131.544C197.033 130.928 196.599 130.368 195.955 129.864C195.339 129.36 194.499 128.912 193.435 128.52C192.371 128.1 190.999 127.722 189.319 127.386C187.555 127.022 186.043 126.602 184.783 126.126C183.523 125.622 182.487 125.048 181.675 124.404C180.891 123.732 180.317 122.962 179.953 122.094C179.589 121.226 179.407 120.232 179.407 119.112V119.028C179.407 117.936 179.645 116.928 180.121 116.004C180.597 115.052 181.255 114.226 182.095 113.526C182.935 112.826 183.929 112.28 185.077 111.888C186.225 111.496 187.485 111.3 188.857 111.3C190.985 111.3 192.819 111.594 194.359 112.182C195.927 112.77 197.453 113.666 198.937 114.87L197.551 116.592C196.151 115.388 194.737 114.534 193.309 114.03C191.909 113.526 190.397 113.274 188.773 113.274C187.681 113.274 186.687 113.428 185.791 113.736C184.923 114.016 184.167 114.408 183.523 114.912C182.907 115.416 182.431 116.004 182.095 116.676C181.759 117.348 181.591 118.062 181.591 118.818V118.902C181.591 119.686 181.703 120.4 181.927 121.044C182.179 121.66 182.613 122.234 183.229 122.766C183.873 123.27 184.755 123.732 185.875 124.152C186.995 124.572 188.423 124.964 190.159 125.328C193.575 126.028 196.039 127.022 197.551 128.31C199.063 129.57 199.819 131.278 199.819 133.434V133.518C199.819 134.694 199.567 135.786 199.063 136.794C198.587 137.774 197.915 138.614 197.047 139.314C196.207 140.014 195.185 140.56 193.981 140.952C192.805 141.344 191.503 141.54 190.075 141.54Z" fill="black"/>
<path d="M244.618 141.582C242.854 141.582 241.23 141.316 239.746 140.784C238.29 140.224 237.016 139.412 235.924 138.348C234.86 137.256 234.034 135.926 233.446 134.358C232.858 132.79 232.564 130.97 232.564 128.898V111.72H234.748V128.688C234.748 132.188 235.616 134.89 237.352 136.794C239.116 138.67 241.566 139.608 244.702 139.608C246.186 139.608 247.53 139.384 248.734 138.936C249.938 138.488 250.96 137.816 251.8 136.92C252.668 136.024 253.326 134.904 253.774 133.56C254.25 132.216 254.488 130.662 254.488 128.898V111.72H256.672V128.646C256.672 130.746 256.378 132.608 255.79 134.232C255.202 135.828 254.376 137.172 253.312 138.264C252.248 139.356 250.974 140.182 249.49 140.742C248.034 141.302 246.41 141.582 244.618 141.582Z" fill="black"/>
<path d="M290.976 111.72H293.16V139.104H310.422V141.12H290.976V111.72Z" fill="black"/>
<path d="M346.985 113.736H336.737V111.72H359.417V113.736H349.169V141.12H346.985V113.736Z" fill="black"/>
<path d="M403.283 111.51H405.383L419.075 141.12H416.681L412.943 132.888H395.597L391.859 141.12H389.591L403.283 111.51ZM412.019 130.914L404.291 113.904L396.521 130.914H412.019Z" fill="black"/>
<path d="M451.333 111.72H453.391L473.677 137.298V111.72H475.777V141.12H474.139L453.433 114.996V141.12H451.333V111.72Z" fill="black"/>
<path d="M523.868 141.624C521.768 141.624 519.822 141.232 518.03 140.448C516.238 139.664 514.684 138.6 513.368 137.256C512.08 135.884 511.072 134.274 510.344 132.426C509.616 130.578 509.252 128.604 509.252 126.504V126.42C509.252 124.348 509.616 122.388 510.344 120.54C511.1 118.692 512.122 117.082 513.41 115.71C514.726 114.31 516.28 113.218 518.072 112.434C519.864 111.622 521.824 111.216 523.952 111.216C525.268 111.216 526.458 111.328 527.522 111.552C528.586 111.776 529.566 112.098 530.462 112.518C531.386 112.938 532.24 113.442 533.024 114.03C533.836 114.59 534.62 115.22 535.376 115.92L533.822 117.516C533.178 116.9 532.506 116.326 531.806 115.794C531.106 115.262 530.35 114.814 529.538 114.45C528.754 114.058 527.886 113.75 526.934 113.526C526.01 113.302 525.002 113.19 523.91 113.19C522.146 113.19 520.508 113.526 518.996 114.198C517.484 114.87 516.168 115.808 515.048 117.012C513.956 118.188 513.088 119.574 512.444 121.17C511.828 122.766 511.52 124.488 511.52 126.336V126.42C511.52 128.268 511.842 130.004 512.486 131.628C513.13 133.224 513.998 134.624 515.09 135.828C516.21 137.004 517.526 137.942 519.038 138.642C520.55 139.314 522.188 139.65 523.952 139.65C526.08 139.65 527.928 139.258 529.496 138.474C531.064 137.69 532.59 136.556 534.074 135.072L535.544 136.5C534.76 137.256 533.948 137.956 533.108 138.6C532.296 139.216 531.414 139.748 530.462 140.196C529.538 140.644 528.53 140.994 527.438 141.246C526.346 141.498 525.156 141.624 523.868 141.624Z" fill="black"/>
<path d="M577.178 129.486L564.578 111.72H567.308L578.312 127.512L589.358 111.72H591.962L579.362 129.444V141.12H577.178V129.486Z" fill="black"/>
</svg>
