<svg width="124" height="125" viewBox="0 0 124 125" fill="none" xmlns="http://www.w3.org/2000/svg">
<rect width="124" height="125" fill="white"/>
<g clip-path="url(#clip0_1_15)">
<path d="M79 16H35C23.9543 16 15 24.9543 15 36V80C15 91.0457 23.9543 100 35 100H79C90.0457 100 99 91.0457 99 80V36C99 24.9543 90.0457 16 79 16Z" fill="#FF6969"/>
<path d="M89 25H45C33.9543 25 25 33.9543 25 45V89C25 100.046 33.9543 109 45 109H89C100.046 109 109 100.046 109 89V45C109 33.9543 100.046 25 89 25Z" fill="black"/>
<path d="M57.212 41.3244L58.78 48.9684C61.524 43.5784 66.522 40.0504 75.244 41.2264L75.146 50.9284C65.346 49.6544 59.564 53.0844 59.172 60.9244L59.27 92.1864H48V41.3244H57.212Z" fill="white"/>
<path d="M79.0178 92.1865C82.3315 92.1865 85.0178 89.5002 85.0178 86.1865C85.0178 82.8728 82.3315 80.1865 79.0178 80.1865C75.7041 80.1865 73.0178 82.8728 73.0178 86.1865C73.0178 89.5002 75.7041 92.1865 79.0178 92.1865Z" fill="#FF6969"/>
</g>
<defs>
<clipPath id="clip0_1_15">
<rect width="94" height="93" fill="white" transform="translate(15 16)"/>
</clipPath>
</defs>
</svg>
