<svg width="73" height="46" viewBox="0 0 73 46" xmlns="http://www.w3.org/2000/svg"><path d="M35.372 15.9c.322-.322.58-.686.775-1.09.193-.407.308-.826.34-1.256.033-.432-.024-.86-.17-1.283-.148-.42-.402-.81-.764-1.17-.36-.36-.753-.61-1.176-.75-.425-.14-.853-.2-1.285-.16-.43.04-.85.15-1.254.35-.404.2-.768.46-1.09.78-.322.32-.58.69-.775 1.09-.193.41-.308.83-.34 1.26-.033.43.024.86.17 1.28.15.42.403.82.763 1.18s.753.61 1.18.76c.422.15.85.2 1.282.17.43-.033.85-.15 1.254-.344.405-.197.768-.457 1.09-.78zm.023 3.135c-.686.312-1.4.48-2.143.504-.743.02-1.486-.11-2.23-.39-.742-.29-1.44-.75-2.096-1.41-.654-.65-1.127-1.35-1.416-2.1-.29-.75-.426-1.49-.405-2.24.02-.75.186-1.46.496-2.15s.74-1.3 1.28-1.84 1.15-.97 1.84-1.28c.69-.32 1.4-.48 2.14-.51.75-.027 1.49.105 2.24.392.75.285 1.45.754 2.1 1.406.66.65 1.13 1.35 1.41 2.09.29.74.42 1.486.4 2.23-.02.74-.18 1.456-.49 2.142-.31.69-.73 1.3-1.27 1.844-.54.54-1.15.964-1.84 1.28zm-8.41-9.06l1.493-1.498-3.19-3.175 2.123-2.13 3.18 3.16L32.12 4.8 27.32.02 27.3 0 13.23 14.11l7.896 7.86 5.22-5.24-1.464-1.46-3.403 3.415-1.68-1.665 3.4-3.42-1.43-1.426-3.41 3.415-1.68-1.67 7.1-7.12 3.19 3.17zm14.33 10.833c.724.72 1.513.708 2.068.15.588-.59.564-1.343-.16-2.064l-1.226-1.22-1.908 1.915 1.22 1.21zm.084 2.588l-1.58 4.79-1.94-1.928 1.51-4.347-.82-.8-2.93 2.94-1.76-1.75 7.86-7.89 3.32 3.31c1.56 1.55 1.49 3.62.09 5.02-1.07 1.07-2.47 1.3-3.78.68zm21.12 6.706c-.59-.587-1.35-.563-2.07.16l-1.22 1.225 1.91 1.907 1.22-1.225c.72-.73.71-1.52.15-2.07zm2.44 1.983l4.79 1.58-1.93 1.936-4.35-1.51-.81.82 2.94 2.93-8.04 8.07-7.9-7.86 5.22-5.24 1.46 1.46-3.41 3.42 1.793 1.79 3.403-3.412 1.43 1.428-3.4 3.416 1.732 1.73 4.46-4.48-6.43-6.4 3.31-3.316c1.55-1.56 3.62-1.497 5.02-.1 1.07 1.064 1.293 2.463.673 3.774zm-10.28-4.817l-7.55 3.412 3.36-7.59-2.11-2.1-7.86 7.893 1.78 1.773 4.87-4.892-3.12 6.644 1.35 1.347 6.58-3.196-4.88 4.89 1.78 1.77 7.86-7.89-2.08-2.07zm14.52 1.017l1.51 4.406 2.01-2.01-4-11.77-2.01 2.02 1.66 4.53-4.78-1.4-2.13 2.13 7.715 2.11zM10.62 16.732l3.19 3.178-2.717 2.728L7.9 19.46l-1.82 1.827 7.896 7.858 1.82-1.826-3.136-3.13 2.718-2.73 3.136 3.12 1.81-1.82-7.897-7.86-1.808 1.81zm-5.446 8.62l6.316 6.29-1.82 1.825-6.316-6.287-1.774 1.78L0 27.39l5.38-5.4 1.58 1.57-1.786 1.793z" fill="#C1C1C1" fill-rule="evenodd"/></svg>