<svg id="Layer_1" data-name="Layer 1" xmlns="http://www.w3.org/2000/svg" viewBox="0 0 1318.38 1220.99"><defs><style>.cls-1{fill:#fff;}.cls-2{fill:#ff6b00;}.cls-3{fill:#ffb114;}.cls-4{fill:#00a000;}.cls-5{fill:#e02416;}</style></defs><path class="cls-1" d="M1187.63,417.73a317.85,317.85,0,0,0-24-98,307.26,307.26,0,0,0-113.79-137A304,304,0,0,0,881.6,131.92h-2.1a302.38,302.38,0,0,0-41,2.8c-42.3,5.81-85.46,21.34-124.83,44.91a335.68,335.68,0,0,0-54,40,335.49,335.49,0,0,0-54.11-40.07C566.2,156.06,523,140.54,480.7,134.72a303.18,303.18,0,0,0-209.24,48.09,307.17,307.17,0,0,0-113.78,137,317.56,317.56,0,0,0-24,98,348.57,348.57,0,0,0,5.88,96.59c11.68,58.68,38.19,118,76.65,171.59,106.88,148.86,236.32,282.8,392.66,390.67,32.88,22.68,74.65,22.75,107.63,0,156.34-107.86,281.71-241.81,388.59-390.67,38.46-53.57,65-112.91,76.66-171.59A349.34,349.34,0,0,0,1187.63,417.73Z"/><path class="cls-2" d="M727.39,973.23c-14.58-19.85-83.48-9-97.27-22.57-12.06-11.92-18.66-34.85-23.31-50.24-4.55-15.06-12.1-28.64-21.22-41.2l1,1c6.25-3.65,16.15-9.17,21.39-13.88,12.73-11.44-22.62-21.89-28.06-23.51-8.84-2.65-19.58-2-31.54-4.75-12.17-11.22-24.82-20.71-43.2-33-23.46-15.68-59.73-17.16-71.22-16.81-24,.71-42.13,15-1.9,68.19,20.24,26.76,40.23,57.7,66.11,79.07,3.1,2.55,23.25,34.62,88.09,54.67,36.8,11.37,36,42.58,73.09,68.09,9.78,6.72,21.12-24.63,26.27-32,9.48-13.49,4-8.31,17.83-13.09C709.46,991.15,735,983.56,727.39,973.23Z"/><path class="cls-3" d="M855,340.06Q847.08,328,839.18,315.9c-2-3.12-5.32-11.15-8.61-13-6.43-3.66-14.65,1.36-21.65-5.15-7.53-7-3.09-12.61-2.32-20.52.62-6.4-1.17-12.15-3.45-18.08-3.85-10.06-9.35-19.76-15.17-28.81-3.29-6.17-9.93-6.11-16.67-6.3-18.41-.53-42.2,24.12-53.06,30.35-12.55,7.19-42.9,28.92-35.58,47.91,3.3,8.59,7.62,16,13.18,25.32l.54-.31c5.61-3,10.34-.68,13.47,5.2s3.47,12.85-1.8,15.93c2,3.56,4.1,7.39,6.31,11.58,15,28.48,34.62,91.71,75.37,54.58,20.43-18.61,33.2-46,62.62-61.3C857.08,350.84,858.35,344.51,855,340.06Zm-127-20c-5.6,3-12.69.63-15.82-5.26s-1.13-13.07,4.48-16.06,10.33-.68,13.46,5.2S733.62,317.08,728,320.07Zm39.2-60.79a9.37,9.37,0,0,1,8.8,16.53c-4.35,2.31-12.69.43-15.12-4.14S762.87,261.6,767.21,259.28Zm-4,134.85c-5.92,3.15-10.54.73-13.84-5.47s-4-13.85,1.87-17,13.38-.67,16.69,5.54S769.07,391,763.17,394.13Zm5.72-79.31a8.34,8.34,0,0,1-.79-2.11v0a8.14,8.14,0,0,1,1.22-6.54v0a1.13,1.13,0,0,1,.1-.13v0l.1-.13,0,0a.76.76,0,0,1,.11-.14h0l.12-.13,0,0,.09-.1.05-.05.06-.07.07-.07,0-.05.09-.08,0,0,.32-.29,0,0,.11-.08,0,0,.12-.1h0a7,7,0,0,1,1.11-.72,7.9,7.9,0,0,1,9.4,1.66,9.07,9.07,0,0,1,1.39,1.92c.12.24.24.48.34.73l0,.08.06.15c0,.08.06.15.08.22a.36.36,0,0,1,0,.09c.06.19.12.38.17.57v0a7.92,7.92,0,0,1-3.79,9.08A8,8,0,0,1,768.89,314.82Zm20.74,43.63a6.4,6.4,0,1,1,2.37-8.51A6.25,6.25,0,0,1,789.63,358.45Zm35.45-6c-6.49,3.45-14.72,2.63-18.35-4.18s-1.3-15.13,5.18-18.58,14.68-.73,18.31,6.08S831.57,349,825.08,352.41Z"/><path class="cls-1" d="M414.59,772a73.84,73.84,0,0,1,8.19,8.4c2.42,2.78,4.73,5.37,7.13,7.84s4.94,4.87,7.64,7.35a88.88,88.88,0,0,1,8.22,8.32,29.71,29.71,0,0,1-11.87-2.67,32.26,32.26,0,0,1-10.12-7,32.65,32.65,0,0,1-6.73-10.33A32.12,32.12,0,0,1,414.59,772"/><path class="cls-1" d="M430.21,841.84a70.28,70.28,0,0,0,21.05-10.71A137.83,137.83,0,0,0,468.52,816c5.4-5.5,10.59-11.33,15.62-17.42q3.78-4.58,7.42-9.38c2.46-3.21,4.82-6.5,7.28-10A42.9,42.9,0,0,1,497,791.9a69.84,69.84,0,0,1-4.71,12,82.49,82.49,0,0,1-15,20.84,67.44,67.44,0,0,1-21.36,14.91A45.73,45.73,0,0,1,443.16,843a30.17,30.17,0,0,1-13-1.19"/><path class="cls-1" d="M510.74,824.55a19.74,19.74,0,0,0,4-2.29,16.64,16.64,0,0,0,2.46-2.24,17.93,17.93,0,0,0,2-2.68,20.28,20.28,0,0,0,1.89-4.19,6.13,6.13,0,0,1,2.5,5.07,8.17,8.17,0,0,1-2.14,5.62,8.26,8.26,0,0,1-5.38,2.69,6.12,6.12,0,0,1-5.29-2"/><path class="cls-1" d="M468.43,863a19.46,19.46,0,0,0,4-2.29,16.64,16.64,0,0,0,2.46-2.24,17.93,17.93,0,0,0,2-2.68,20.83,20.83,0,0,0,1.89-4.19,6.13,6.13,0,0,1,2.5,5.07,8.17,8.17,0,0,1-2.14,5.62,8.28,8.28,0,0,1-5.38,2.69,6.12,6.12,0,0,1-5.29-2"/><path class="cls-1" d="M501.57,855.36a19.27,19.27,0,0,0,4-2.29,16.11,16.11,0,0,0,2.46-2.24,17.43,17.43,0,0,0,2-2.68,20.71,20.71,0,0,0,1.89-4.18,6.1,6.1,0,0,1,2.5,5.06,8.13,8.13,0,0,1-2.14,5.62,8.26,8.26,0,0,1-5.38,2.69,6.12,6.12,0,0,1-5.29-2"/><path class="cls-1" d="M533.53,851.81a19.94,19.94,0,0,0,3.87-2.65,27,27,0,0,0,4.18-4.63,20.5,20.5,0,0,0,2.26-4.12,6,6,0,0,1,2.87,5.14,8.33,8.33,0,0,1-7.78,8.59,6.09,6.09,0,0,1-5.4-2.33"/><path class="cls-1" d="M493.18,890.29a20.87,20.87,0,0,0,3.87-2.65,27.28,27.28,0,0,0,2.22-2.2,28.34,28.34,0,0,0,2-2.44,21.11,21.11,0,0,0,2.26-4.11,6.05,6.05,0,0,1,2.86,5.14,8.33,8.33,0,0,1-7.78,8.59,6.07,6.07,0,0,1-5.39-2.33"/><path class="cls-1" d="M526.19,883.52a20.23,20.23,0,0,0,4-2.29,16.64,16.64,0,0,0,2.46-2.24,17.93,17.93,0,0,0,2-2.68,20.83,20.83,0,0,0,1.89-4.19,6.13,6.13,0,0,1,2.5,5.07,8.17,8.17,0,0,1-2.14,5.62,8.26,8.26,0,0,1-5.38,2.69,6.15,6.15,0,0,1-5.29-2"/><path class="cls-1" d="M564.25,876.23a18.89,18.89,0,0,0,3.91-1.93,17.41,17.41,0,0,0,2.44-1.88,19.88,19.88,0,0,0,2.07-2.27,19.11,19.11,0,0,0,2.27-3.73,5.76,5.76,0,0,1,2,5,7.82,7.82,0,0,1-7.9,7.23,5.73,5.73,0,0,1-4.82-2.44"/><path class="cls-1" d="M521.11,908.62a18.16,18.16,0,0,0,3.91-1.93,17.81,17.81,0,0,0,4.51-4.14,19.24,19.24,0,0,0,2.27-3.73,5.73,5.73,0,0,1,2,5,7.84,7.84,0,0,1-7.9,7.24,5.78,5.78,0,0,1-4.82-2.45"/><path class="cls-1" d="M552.93,904.39a19.15,19.15,0,0,0,3.91-1.93,16.71,16.71,0,0,0,2.43-1.88,19,19,0,0,0,2.08-2.27,19.42,19.42,0,0,0,2.27-3.73,5.75,5.75,0,0,1,2,5,7.8,7.8,0,0,1-7.89,7.23,5.73,5.73,0,0,1-4.82-2.44"/><path class="cls-1" d="M583.28,903.85a19,19,0,0,0,3.92-1.93,17.28,17.28,0,0,0,2.43-1.88,19,19,0,0,0,4.34-6,5.76,5.76,0,0,1,2,5,7.82,7.82,0,0,1-7.9,7.23,5.76,5.76,0,0,1-4.82-2.44"/><path class="cls-1" d="M542,936.48a19.15,19.15,0,0,0,3.91-1.93,16.71,16.71,0,0,0,2.43-1.88,19,19,0,0,0,2.08-2.27,19.42,19.42,0,0,0,2.27-3.73,5.75,5.75,0,0,1,2,5,7.8,7.8,0,0,1-7.89,7.23,5.73,5.73,0,0,1-4.82-2.44"/><path class="cls-1" d="M573.6,933a18.49,18.49,0,0,0,3.84-2.29c.9-.7,1.58-1.31,2.19-1.87s1.25-1.18,2-2a19.29,19.29,0,0,0,2.62-3.63,5.73,5.73,0,0,1,2.39,5.12,7.91,7.91,0,0,1-8.19,7.5A5.7,5.7,0,0,1,573.6,933"/><path class="cls-1" d="M587.19,951.18a13.94,13.94,0,0,0,6.63-1.34,15,15,0,0,0,4.49-3.13,21.25,21.25,0,0,0,3.37-4.75,68.9,68.9,0,0,0,3-6.63,11.57,11.57,0,0,1,2.08,8,13.31,13.31,0,0,1-3.65,8,12.06,12.06,0,0,1-8.34,3.63,10,10,0,0,1-4.39-.91,6.79,6.79,0,0,1-3.17-2.88"/><path class="cls-1" d="M461.73,791.14a20.49,20.49,0,0,0-1.51-4.44,27.5,27.5,0,0,0-3.34-5.27,20.94,20.94,0,0,0-3.35-3.28,6.05,6.05,0,0,1,5.72-1.38,8.34,8.34,0,0,1,6.18,9.8,6.08,6.08,0,0,1-3.7,4.57"/><path class="cls-3" d="M942,358.55c-4.07-12.28-2.39-31.29,1.36-39.49,6.6-14.43,25.31-16,37.93-22.62s22.54-20.24,35.77-26.52c17-8.05,33.86.94,48.92,9.3,9.31,5.17,21,25,24.19,35.9,6.7,23-25.89,34.12-53.45,49.93-22.82,13.09-39.06,27.41-54.9,26.51-16.25-.91-33.33-13.46-39.82-33"/><path class="cls-1" d="M1044.94,290.72a2,2,0,0,0,3.88-1.05,2,2,0,0,0-3.88,1.05"/><path class="cls-1" d="M1046.83,289.75h-.07a.35.35,0,0,0-.18.15.46.46,0,0,0,0,.38l.7-.19a.48.48,0,0,0-.23-.3.32.32,0,0,0-.17-.05m-.3.54h0a.49.49,0,0,0,.23.31.37.37,0,0,0,.24,0,.43.43,0,0,0,.23-.53Zm.3,4.22a4.5,4.5,0,0,1-2.11-.54,4.28,4.28,0,0,1-2.08-2.63,4.41,4.41,0,0,1,6.4-4.91,4.23,4.23,0,0,1,1.6,5.94,4.44,4.44,0,0,1-2.64,2,4.71,4.71,0,0,1-1.17.16"/><path class="cls-1" d="M995.61,302.06a2,2,0,1,0,1.44-2.38,2,2,0,0,0-1.44,2.38"/><path class="cls-1" d="M997.51,301.09h-.08a.43.43,0,0,0-.23.53.54.54,0,0,0,.23.3.41.41,0,0,0,.24,0,.35.35,0,0,0,.19-.15.5.5,0,0,0,0-.38.49.49,0,0,0-.23-.31.37.37,0,0,0-.16,0m0,4.75a4.32,4.32,0,0,1-2.1-.54,4.17,4.17,0,0,1-2.08-2.62,4.21,4.21,0,0,1,.47-3.32,4.4,4.4,0,0,1,2.64-2,4.45,4.45,0,0,1,3.28.38,4.25,4.25,0,0,1,2.08,2.63,4.41,4.41,0,0,1-4.29,5.45"/><path class="cls-1" d="M975.24,323.77a2,2,0,1,0,1.44-2.38,2,2,0,0,0-1.44,2.38"/><path class="cls-1" d="M977.14,322.8h-.07a.29.29,0,0,0-.19.15.5.5,0,0,0,0,.38l.69-.19a.47.47,0,0,0-.23-.3.29.29,0,0,0-.16-.05m-.3.54h0a.47.47,0,0,0,.23.3.27.27,0,0,0,.23,0,.41.41,0,0,0,.23-.53Zm.29,4.21A4.42,4.42,0,0,1,975,327a4.21,4.21,0,0,1-2.08-2.63,4.35,4.35,0,0,1,3.11-5.3,4.4,4.4,0,0,1,3.28.39,4.17,4.17,0,0,1,2.08,2.62,4.23,4.23,0,0,1-.47,3.31,4.42,4.42,0,0,1-2.64,2,4.71,4.71,0,0,1-1.18.15"/><path class="cls-1" d="M1067.52,310.62a2,2,0,1,0,1.44-2.38,2,2,0,0,0-1.44,2.38"/><path class="cls-1" d="M1069.42,309.66h-.08a.31.31,0,0,0-.19.14.55.55,0,0,0,0,.38l.7-.19a.47.47,0,0,0-.23-.3.41.41,0,0,0-.16,0m-.31.53a.53.53,0,0,0,.23.31.32.32,0,0,0,.24,0,.41.41,0,0,0,.23-.53Zm.3,4.22a4.43,4.43,0,0,1-2.1-.54,4.24,4.24,0,0,1-2.09-2.63,4.36,4.36,0,0,1,3.12-5.29,4.4,4.4,0,0,1,3.28.38,4.23,4.23,0,0,1,1.6,5.94,4.44,4.44,0,0,1-2.64,2,4.23,4.23,0,0,1-1.17.16"/><path class="cls-1" d="M1025.53,331.12a2,2,0,1,0,1.44-2.38,2,2,0,0,0-1.44,2.38"/><path class="cls-1" d="M1027.43,330.15h-.07a.35.35,0,0,0-.18.15.46.46,0,0,0,0,.38l.7-.19a.54.54,0,0,0-.23-.3.35.35,0,0,0-.17-.05m-.3.54h0a.52.52,0,0,0,.23.31.31.31,0,0,0,.24,0,.43.43,0,0,0,.23-.53Zm.3,4.21a4.43,4.43,0,0,1-2.11-.53,4.25,4.25,0,0,1-2.08-2.63,4.36,4.36,0,0,1,3.12-5.3,4.46,4.46,0,0,1,3.28.39,4.26,4.26,0,0,1,1.6,5.94,4.4,4.4,0,0,1-2.64,2,4.69,4.69,0,0,1-1.17.15"/><path class="cls-1" d="M999.84,332.63a2,2,0,1,0,1.44-2.38,2,2,0,0,0-1.44,2.38"/><path class="cls-1" d="M1001.74,331.66h-.07a.35.35,0,0,0-.18.15.46.46,0,0,0,0,.38l.7-.19a.54.54,0,0,0-.23-.3.35.35,0,0,0-.17,0m-.3.54a.52.52,0,0,0,.23.31.31.31,0,0,0,.24,0,.43.43,0,0,0,.23-.53Zm.3,4.21a4.43,4.43,0,0,1-2.11-.53,4.28,4.28,0,0,1-2.08-2.63,4.36,4.36,0,0,1,3.12-5.3,4.46,4.46,0,0,1,3.28.39,4.25,4.25,0,0,1,1.6,5.94,4.4,4.4,0,0,1-2.64,2,4.69,4.69,0,0,1-1.17.15"/><path class="cls-4" d="M887.54,627a4.18,4.18,0,0,1,2.52,5.25c-7.38,25.28-14,50.82-22.35,75.79-8.3,24.67-20.9,46.3-31.26,69.88-5.44,12.39-23,49.59-38.64,50.15-24.21.87-40-15.2-61.18-25.16-11.61-5.46-40.12-14-44-27.79-3.17-11.27,11.35-38.57,15.32-50q10.38-30,20.76-59.94c9.13-26.36,15.41-54.63,24.54-81a4,4,0,0,1,5.07-2.64Z"/><path class="cls-1" d="M757.07,583.73a1.45,1.45,0,0,0-.68.17,1.74,1.74,0,0,0-.87,1c-4.56,13.17-8.47,27-12.25,40.41S735.54,652.73,731,666l-20.77,59.94c-1.05,3-2.75,7-4.73,11.58-5.05,11.72-12.67,29.44-10.54,37,2.79,9.92,21.58,17.56,34,22.61,3.4,1.38,6.34,2.57,8.71,3.68a201.37,201.37,0,0,1,18.05,10c13.23,8,25.73,15.49,42,14.91,11.34-.41,26.31-25.44,36.54-48.74,3.71-8.43,7.75-16.71,11.66-24.73,7-14.35,14.23-29.2,19.53-45,5.79-17.22,10.8-35,15.64-52.26,2.17-7.68,4.4-15.63,6.68-23.43a1.83,1.83,0,0,0-1-2.35h0L757.53,583.81a1.31,1.31,0,0,0-.46-.08M795.89,830.5c-16.7,0-29.31-7.59-42.64-15.62a199.84,199.84,0,0,0-17.63-9.8c-2.24-1.06-5.13-2.23-8.47-3.58-14.09-5.72-33.38-13.56-36.81-25.72-2.58-9.18,4.82-26.35,10.75-40.16,1.94-4.51,3.62-8.4,4.61-11.26l20.77-59.94c4.54-13.12,8.45-27,12.23-40.36s7.72-27.38,12.31-40.62a6.42,6.42,0,0,1,3.25-3.79,6.15,6.15,0,0,1,4.83-.32l129.23,45.44a6.58,6.58,0,0,1,4,8.23c-2.25,7.72-4.48,15.65-6.64,23.33-4.86,17.28-9.89,35.15-15.72,52.49-5.39,16-12.7,31-19.76,45.52-3.89,8-7.91,16.21-11.57,24.55-19.46,44.3-33.87,51.33-40.73,51.58l-2,0"/><path class="cls-4" d="M790.93,526.93l3-11.64,0-.07c2.64-8.2,9.73-16.68,17-16.68a9.32,9.32,0,0,1,3,.5l77.71,25.2c7.85,2.7,11.74,12.58,8.72,22l-4,15.62Z"/><path class="cls-1" d="M811,496.16h0c-8.7,0-16.43,9.45-19.29,18.33l0,.14,0,.13-2.42,9.43-1.11,4.29,4.21,1.4,101,33.49,4.84,1.6,1.26-4.94,3.34-13.09c3.36-10.67-1.19-21.83-10.2-24.93l0,0h0l-77.71-25.2a11.55,11.55,0,0,0-3.74-.62m0,4.75a7,7,0,0,1,2.24.37L891,526.5c6.63,2.28,9.83,10.85,7.17,19.14l-3.37,13.22-101-33.49,2.42-9.43c2.37-7.36,8.73-15,14.77-15"/><path class="cls-4" d="M890.48,556.88,794.21,526c-3.32-1.11-7.89.27-9.74,3.34l-27,52.47c-.75,1.14-4.92,10.65-3.66,11.09,0,0,93.52,32.62,125,43.95,1.26.45,10.58-7,10.67-8.4,1-16.11,5.5-64.36,5.5-64.36a6.9,6.9,0,0,0-4.57-7.17"/><path class="cls-1" d="M847.93,564a8,8,0,0,0-3.2-3.76,9.91,9.91,0,0,0-4.56-1.34,22.54,22.54,0,0,0-4.14.26,13.28,13.28,0,0,0-3.62,1,11.92,11.92,0,0,0-5.69,4.53,11.17,11.17,0,0,0-1.36,3.61,10.78,10.78,0,0,0-.21,4.22,8.7,8.7,0,0,0,5.73,6.91,8.84,8.84,0,0,0,4.64.21,16.12,16.12,0,0,0,4-1.7,30.73,30.73,0,0,0,3.25-2.19,26,26,0,0,0,3.12-2.72,9.57,9.57,0,0,0,2.41-4.07,7.61,7.61,0,0,0,.25-2.47,11.42,11.42,0,0,0-.57-2.48m.72-.26c.27.87.56,1.65.86,2.54s.48,1.78.66,2.72a15.48,15.48,0,0,1,.08,6,11.27,11.27,0,0,1-3,5.67,12,12,0,0,1-5.62,3.18,14.38,14.38,0,0,1-6.3-.07,26.09,26.09,0,0,1-5.47-2.16,24.52,24.52,0,0,1-4.69-3.15,18.15,18.15,0,0,1-3.9-4.42,13.19,13.19,0,0,1-2.06-6,13.72,13.72,0,0,1,1-6.48,16.28,16.28,0,0,1,3.7-5.61,15.3,15.3,0,0,1,12.3-4.24,12.53,12.53,0,0,1,6,2.47,17,17,0,0,1,4,4.54,29.06,29.06,0,0,1,2.46,4.93"/><path class="cls-4" d="M861.22,655.76c-.7,10.31-18.7,56-23.19,68.33-5.51,15.1-10.91,25.26-16.77,40.22-1.94,5-9.19,8.14-14,6.31,0,0-42.63-5.51-73.17-27.9-9.35-6.86-6-13.48-5.2-16,4.5-13.87,7.2-17.18,11.69-31.06,3.86-11.94,19.76-68.59,30.59-72.46,13-4.64,82.64,19.5,90.07,30,.47.67,0,1.66,0,2.52"/><path class="cls-1" d="M775.72,625.43a11.25,11.25,0,0,0-3.59.44c-1.15.41-5.52,3.45-13.91,25.37-5.19,13.56-10,29.23-12.85,38.59-.87,2.84-1.58,5.15-2.08,6.7-2.28,7.06-4.14,11.49-5.93,15.77s-3.55,8.48-5.76,15.29c-.07.21-.15.46-.25.73-1,2.79-2.5,7,4.43,12.1,29.6,21.7,71.42,27.32,71.85,27.37l.33,0,.32.13c3.38,1.29,9-1.25,10.32-4.69,2.63-6.71,5.18-12.49,7.65-18.07,3.12-7.09,6.07-13.79,9.1-22.08.83-2.28,2.12-5.69,3.68-9.81,6.57-17.39,18.81-49.75,19.35-57.75a9.37,9.37,0,0,1,.15-1.11,0,0,0,0,0,0,0c-3.43-3.81-18.25-11.43-41.16-19.2-18-6.11-33.92-9.79-41.66-9.79M810.25,774a11.24,11.24,0,0,1-3.67-.58c-4.26-.58-44.43-6.58-74.17-28.38-10.36-7.59-7.5-15.6-6.43-18.62.08-.21.15-.4.2-.57,2.28-7,4.13-11.46,5.92-15.73s3.56-8.49,5.77-15.33c.5-1.53,1.19-3.8,2-6.6,11.71-38.31,21.35-64.47,30.29-67.66,9.74-3.49,40,6.24,49,9.31,6.37,2.16,38.44,13.37,44.36,21.78a4.9,4.9,0,0,1,.57,3.9,3.73,3.73,0,0,0-.08.44h0c-.54,8.15-10.46,34.92-19.7,59.37-1.55,4.1-2.83,7.49-3.66,9.75-3.09,8.47-6.08,15.25-9.24,22.43-2.44,5.53-5,11.25-7.55,17.85-2,5.06-8.09,8.63-13.66,8.63"/><path class="cls-1" d="M790.42,743.22a29.38,29.38,0,0,1-3.9-1.85c-18.86-10.72-12.91-39.65-31.45-50.4-3.39-2-8.29-1.75-12.17-2.08l-16.31,46.36c-.82,2.53-3.57-1.49,4.64,6.71,21.62,21.63,76.69,31,76.69,31a9.43,9.43,0,0,0,12.1-5.58c5.5-15.29,13.18-36,18.36-51.36-6.13,18.23-28.45,34.67-48,27.17"/><path class="cls-4" d="M534.83,392.5c-.15-1.47-2.4-.49-7.09-1.76.1,3.82-147.38,5.51-149.22,5.47-3.44-.08-5.63.84-6.58-1.57a1.66,1.66,0,0,0-.59,1.15c.1,8,8.26,57.84,32.24,84.32,29.18,32.19,88.88,36.15,115.23,0,20.93-28.74,16.79-79.63,16-87.6"/><path class="cls-4" d="M534.68,392.39c.07,4.57-36.26,8.93-81.15,9.72s-81.35-2.27-81.42-6.84,36.38-10,81.27-10.78,81.22,3.32,81.3,7.9"/><path class="cls-4" d="M918.4,665a16.63,16.63,0,1,0,7.86,22.14A16.61,16.61,0,0,0,918.4,665"/><path class="cls-4" d="M949.73,639.07c-8.71-4.13-18.9-.88-22.76,7.26s.06,18.09,8.77,22.22,14.15-1,18-9.16,4.69-16.19-4-20.32"/><path class="cls-4" d="M935.6,580.76c-10.88-5.16-24.55-.15-29.37,10S909.82,614,920,620.43c13.33,8.33,20.76-.8,25.58-11s.87-23.54-10-28.7"/><path class="cls-4" d="M897.93,639.75c-.6,7.29,4.43,13.66,11.24,14.23s14.3-8.35,14.9-15.64-5.89-12.1-12.71-12.66-12.83,6.79-13.43,14.07"/><path class="cls-4" d="M946.11,622.48c-.55,6.66,5.94,12.47,12.16,13S970,631,970.53,624.35s-4-14.36-10.26-14.88-13.61,6.36-14.16,13"/><path class="cls-4" d="M932.18,539.24c-8.26-3.91-17.91-.83-21.57,6.88s.06,17.14,8.31,21,19.81.84,23.47-6.87-2-17.14-10.21-21.06"/><path class="cls-3" d="M682.36,765.13a2.78,2.78,0,0,0-2.36-.63l-15,3c-18.77-11.51-41.11-15.19-60.42-25.85-24-13.23-40.44-36.1-51.86-61.49-8.24-18.31-13.87-37.94-17.86-56.22-2.62-12-4.59-43.26-16.71-52.3-.31-5-2.31-9.74-5.81-12-2.26-1.46-5.49-.28-8.48-.17-14.64.51-8.61,13.52-5.33,19.18l-1.26,1.61c-35.72,46.11-31.71,75.93-23.47,122.71,2.86,16.15,8.94,32.7,21.31,47.58C510,768.48,532.6,784,552.72,793.5c36.81,17.44,81.61,14.89,114.12-8a13,13,0,0,0,11.42-3.61c3.36-3.35,5.19-8.45,5.15-14.34A3.06,3.06,0,0,0,682.36,765.13Z"/><path class="cls-1" d="M490.28,636.78c.33,8.35.76,16.57,1.85,24.65A153.06,153.06,0,0,0,497,685.08c1.07,3.83,2.45,7.56,3.85,11.25.79,1.81,1.51,3.64,2.36,5.41l1.25,2.67,1.35,2.61.68,1.31.75,1.31,1.48,2.62c1,1.75,1.95,3.52,3,5.2l3.13,5.12,3.36,5c1.07,1.69,2.32,3.25,3.48,4.86l1.77,2.41c.59.8,1.25,1.54,1.87,2.32l1.87,2.32c.62.78,1.23,1.57,1.9,2.29,1.33,1.48,2.66,3,4,4.45a149,149,0,0,0,17.64,16c12.61,9.88,27.24,17.14,42.65,23.57a114.68,114.68,0,0,1-24.6-5.35c-2-.72-4-1.38-6-2.18L557,775.71a121.65,121.65,0,0,1-11.27-6.12,120.18,120.18,0,0,1-20.31-15.84c-1.51-1.53-3-3.09-4.47-4.65-.77-.76-1.45-1.58-2.15-2.4l-2.1-2.45c-.69-.82-1.4-1.63-2.06-2.48l-1.93-2.57c-1.27-1.72-2.64-3.39-3.79-5.19a162.76,162.76,0,0,1-12.73-22.2,100.62,100.62,0,0,1-7.85-24.68,117.08,117.08,0,0,1,2-50.35"/><path class="cls-2" d="M503.25,265c13.62-1,21.22-24.46,20.22-34.29-2.39-23.55-47.49-42.06-96.05-41.37s-86,20.34-83.6,43.88c1,9.84,10.42,25.51,22.7,32.56q-2.06,31.5-4.1,63c-.76,11.64-3.17,21.56-2.34,33.2,1,13.79,5.15,12.08,20.83,10.58,24.89-2.37,50.5-4.93,75.48-5.32,18.65-.28,37.69,3.11,56.49,3.11a5,5,0,0,0,5.09-5.77Z"/><path class="cls-1" d="M504.79,247c-.47-1.13-.85-2.24-1.27-3.33l-1.41-3.15-1.62-2.94c-.63-.92-1.16-1.87-1.81-2.73a37.74,37.74,0,0,0-9-8.73c-6.82-4.74-15-7.6-23.46-9.75a245,245,0,0,0-26.4-4.73c-9-1.26-18.24-2.17-27.7-3.76A105.29,105.29,0,0,1,469,205.27a68.4,68.4,0,0,1,14,5.13,47.74,47.74,0,0,1,12.47,8.9,34.46,34.46,0,0,1,8.18,13A29.38,29.38,0,0,1,504.79,247"/><path class="cls-1" d="M393.69,220.13a3.06,3.06,0,0,1,2.64-3.1,2.5,2.5,0,0,1,2.87,2.4,3.08,3.08,0,0,1-2.65,3.11,2.49,2.49,0,0,1-2.86-2.41"/><path class="cls-1" d="M424.46,228.2a4.09,4.09,0,0,1-3.52,4.14,3.32,3.32,0,0,1-3.82-3.21,4.1,4.1,0,0,1,3.52-4.14,3.32,3.32,0,0,1,3.82,3.21"/><path class="cls-1" d="M364.57,230.32a4.09,4.09,0,0,1,3.53-4.14,3.32,3.32,0,0,1,3.82,3.2,4.1,4.1,0,0,1-3.52,4.14,3.33,3.33,0,0,1-3.83-3.2"/><path class="cls-1" d="M434,236.2a3.07,3.07,0,0,1,2.65-3.1,2.48,2.48,0,0,1,2.86,2.4,3.08,3.08,0,0,1-2.64,3.11A2.5,2.5,0,0,1,434,236.2"/><path class="cls-1" d="M404.2,252a3.09,3.09,0,0,1,2.65-3.11,2.49,2.49,0,0,1,2.86,2.4,3.07,3.07,0,0,1-2.64,3.11,2.49,2.49,0,0,1-2.87-2.4"/><path class="cls-1" d="M377.08,248.93a3.06,3.06,0,0,1,2.64-3.11,2.5,2.5,0,0,1,2.87,2.4,3.09,3.09,0,0,1-2.65,3.11,2.49,2.49,0,0,1-2.86-2.4"/><path class="cls-1" d="M432.3,262.27a4.08,4.08,0,0,1,3.52-4.14,3.32,3.32,0,0,1,3.82,3.2,4.09,4.09,0,0,1-3.52,4.14,3.32,3.32,0,0,1-3.82-3.2"/><path class="cls-1" d="M381.88,270.57a4.11,4.11,0,0,1,3.53-4.15,3.32,3.32,0,0,1,3.82,3.21,4.11,4.11,0,0,1-3.52,4.14,3.33,3.33,0,0,1-3.83-3.2"/><path class="cls-5" d="M751.64,827.93c-13.07-11.74-34.1-15.56-50.61-8-3.5,1.61-18.41,3-22.15,2.12-17.65-4.33-37.57,3.41-48.18,17.42-12.6,16.64-15,37.51-10.17,56.5,5.13,20.08,13.3,33.48,34.08,40.94,61.65,22.13,102.14,11.95,117.31-65.43,3.77-19.24-4.75-29.64-20.28-43.59"/><path class="cls-4" d="M445.19,653.87c-1.22-6.81-3.3-15.57-8.56-22.89-5.48-7.61-13.87-12.18-21.89-11.92-7.4.24-14,1.06-16.76,7.2-7.75-9.8-19.61-10.21-31-9.64a116.33,116.33,0,0,1-3.34-18.83,2.68,2.68,0,0,0-2.81-2.41A28.67,28.67,0,0,0,349,598a15.88,15.88,0,0,0-8.52,9.94c-1,4.12.15,8.06,1.55,11.7.81,2.12,1.72,4.18,2.68,6.21a24.28,24.28,0,0,0-3.69,5.22,27.21,27.21,0,0,0-1.7,4.3c-1.08,3.34-1.1,3.4-3.79,2.66-6.49-1.81-11.95-2-17.23-.41a29.16,29.16,0,0,0-18.16,15.66c-6,13.12-1.35,28,3.39,39.57,11.08,27,26.26,50.11,45.1,68.79,3.13,3.1,6.85,6.59,11.49,8.78,5.26,2.48,10.84,2.74,15.32.7a13.26,13.26,0,0,0,7.06-7.89,25.32,25.32,0,0,0,21.44,4.46l.26-.07a25.27,25.27,0,0,0,17.15-17.34,35,35,0,0,0,10,2.59c15.27,1.18,35.68-8.45,35.33-20.73C466,708.69,451.31,676.76,445.19,653.87Z"/><path class="cls-1" d="M373.85,746.71a52.49,52.49,0,0,1-5.25-3.86c-.84-.69-1.67-1.4-2.48-2.12s-1.56-1.49-2.35-2.23a97.74,97.74,0,0,1-8.59-9.71,107.88,107.88,0,0,1-13.25-22.29,92.9,92.9,0,0,1-7.21-25.12,70.44,70.44,0,0,1-.52-13.14c.22-2.2.37-4.37.77-6.52s1-4.27,1.63-6.34a238.52,238.52,0,0,0,6.86,24c2.63,7.66,5.65,15.12,8.9,22.54s6.75,14.76,10.39,22.15,7.42,14.77,11.1,22.66"/><path class="cls-1" d="M404.07,636.81A114.76,114.76,0,0,1,416,656.86,129.25,129.25,0,0,1,424,678.78a97.81,97.81,0,0,1,3.4,23.31,64,64,0,0,1-3.54,23.24c-.83-7.81-1.75-15.24-3.15-22.58s-3.08-14.56-5-21.78-4-14.45-6.07-21.76-4.14-14.68-5.61-22.4"/><path class="cls-5" d="M639.93,482.05c-11.88-13.4-37.26-32.12-57.85-14.24a35.72,35.72,0,0,0-7.64,10.1c-1.46,2.7-2.39,8.58-5.78,8.79-3.06.19-5.32.73-8.58.26a30,30,0,0,0-11.37.6,32.78,32.78,0,0,0-18.78,12.68,79.86,79.86,0,0,0-4.39,6.91,57.07,57.07,0,0,0-2.69,5.36,37.84,37.84,0,0,0-1.29,27.16c14.41,43.2,43.71,72.49,75.74,60.05,66.72-25.91,96.36-57.11,42.63-117.67"/><path class="cls-5" d="M562.84,459.14c-2.15-2.35-4.73-6-7.78-7.85a7.65,7.65,0,0,0-3-1.13c-4.42-.5-10.49,3.58-8.57,8.43a6.74,6.74,0,0,0,2,2.57c3.34,3,9.67,5.55,11.93,8.28,2.52,3.56,4.38,8,6.13,11.68,2.48,5.92,5.09,12.61,5.71,19.22.37,5.07-2.85,17.38,6.63,12.39l2.33-2.73c-2.6-16.95-3.23-36.55-15.29-50.86"/><path class="cls-1" d="M540.06,541.76a21.89,21.89,0,0,1-5.1-11.19,24.25,24.25,0,0,1,1.44-12.69,25.44,25.44,0,0,1,7.53-10.24,23.36,23.36,0,0,1,11.13-5.1c-2.38,3.41-4.69,6.3-6.63,9.27a50,50,0,0,0-4.77,8.95,41.72,41.72,0,0,0-2.58,9.72c-.55,3.47-.69,7.14-1,11.28"/><path class="cls-1" d="M609.94,568.31a79.2,79.2,0,0,0,11.31-15.71,57.45,57.45,0,0,0,6-16.58,58.14,58.14,0,0,0,.48-17.61,80.11,80.11,0,0,0-4.79-18.75c6.18,3.55,10.76,9.64,13.46,16.45a40,40,0,0,1-7.9,41.77c-5,5.35-11.48,9.36-18.52,10.43"/><path class="cls-5" d="M248.35,494.48c-2,1.69-2.65,6.83-9.65,4.72a4.77,4.77,0,0,0-3.24-.08,4.72,4.72,0,0,0-2.45,2.1c-4,6-7.86,2.47-10.49,2.43s-4.7-.47-7.12-3.52c-2.16-2.73,4.45-13.63,5.74-16.95-48.33.65-28-97.79-19.24-123,13-37.51,37.41-74.81,70.22-98,13.1-9.23,29.11-9.82,40-2.58,1.89-4.19,9.17-19.84,12.69-21.11,4.06-1.47,1.74,3.09,3.68,4.35s7.38,0,5.72,7.26a3.89,3.89,0,0,0,.18,3,3.23,3.23,0,0,0,2.39,1.52c6.66,1.61,3.22,6.39,3.38,8.85s4.93,2.23,1.92,5.55c-2.18,2.4-13.69,2.88-19.94,3,5.39,13.72,1.66,38.79-12.91,49.07-.71.49-47.34,38.41-43.75,118.18,1.2,26.6-6.73,30.41-22.81,38.5,5,2.89,11.52,10.57,11.59,13.56.09,3.88-3.87,1.37-5.88,3.07"/><path class="cls-1" d="M234.84,438.8c-2.29,1.62-3.93,2.77-5.47,3.92s-2.89,2.14-4.3,3.14-2.84,2-4.47,3.06-3.36,2.22-5.79,3.64a10.59,10.59,0,0,1,.45-7.73,14.08,14.08,0,0,1,4.87-5.94,13.84,13.84,0,0,1,7.32-2.58,9.83,9.83,0,0,1,7.39,2.49"/><path class="cls-1" d="M248.38,395.29c-3.35-1.53-6-2.82-8.74-3.78a55.13,55.13,0,0,0-7.88-2.22,57.47,57.47,0,0,0-8.14-1,46.26,46.26,0,0,0-9.35.36,10.91,10.91,0,0,1,3.37-4.31c.36-.29.73-.58,1.11-.84s.79-.47,1.2-.7a14.18,14.18,0,0,1,2.52-1.13,20.85,20.85,0,0,1,20.81,4.24,15.78,15.78,0,0,1,5.1,9.41"/><path class="cls-1" d="M285.63,310.51a25.47,25.47,0,0,0-2.36-7.06,40.91,40.91,0,0,0-3.1-5.19,35.61,35.61,0,0,0-3.73-4.53,15,15,0,0,0-6-3.83,7,7,0,0,1,4.08-2.39,10.59,10.59,0,0,1,4.94.2,14.16,14.16,0,0,1,7.75,5.66,14.82,14.82,0,0,1,2.71,9c-.14,3.18-1.52,6.48-4.26,8.1"/><path class="cls-1" d="M254.63,348.69a12.33,12.33,0,0,0-3-2.09c-.9-.47-1.73-.83-2.55-1.17-1.62-.68-3.15-1.36-4.7-2.12s-3.08-1.59-4.69-2.56c-.81-.49-1.64-1-2.57-1.53a22.55,22.55,0,0,0-3.35-1.6,6.61,6.61,0,0,1,3-3.05,11.1,11.1,0,0,1,4-1.21,14,14,0,0,1,7.79,1.43,13.66,13.66,0,0,1,5.92,5.54,10.15,10.15,0,0,1,1.27,4.17,6,6,0,0,1-1.19,4.19"/><path class="cls-4" d="M945.74,716.05c-3.5-3.16-5-8.56-4.8-13.56,0-1.24.19-2.47.35-3.71s.44-2.43.76-3.58.65-2.33,1-3.42.8-2.23,1.27-3.26a75.75,75.75,0,0,1,6.37-11.69c2.34-3.59,4.82-6.92,7.3-10.1,5-6.36,10-12.06,14.28-17.8s7.87-11.43,8.71-20.79a20.66,20.66,0,0,1,6.67,12.6,34.26,34.26,0,0,1-1.08,14.7,56.07,56.07,0,0,1-5.51,12.8,89.82,89.82,0,0,1-7.37,10.8,237.64,237.64,0,0,1-16.14,17.85,88.72,88.72,0,0,0-7.28,8.31,23.36,23.36,0,0,0-4.57,10.85"/><path class="cls-4" d="M952.34,723.44a40.05,40.05,0,0,1,1.25-7.07c.57-2.3,1.3-4.51,2.07-6.69a109.79,109.79,0,0,1,5.47-12.5,185.55,185.55,0,0,1,13.76-22.5c5-7.1,10.31-13.83,15.76-20.4l8.28-9.85c1.38-1.65,2.75-3.34,4.1-5.09s2.63-3.57,4-5.63a23.32,23.32,0,0,1,1.06,7.23c.06,1.25-.09,2.43-.14,3.66s-.3,2.39-.47,3.6a68.83,68.83,0,0,1-3.88,13.6,114,114,0,0,1-13.17,23.83,153.17,153.17,0,0,1-17.24,20.31c-3.14,3.14-6.45,6.12-9.88,9-1.73,1.44-3.48,2.87-5.3,4.28s-3.64,2.81-5.66,4.2"/><path class="cls-4" d="M966.73,738.31c2.16-2.78,4.46-5.24,6.7-7.66s4.46-4.72,6.48-7a81,81,0,0,0,5.44-6.66c1.59-2.21,3-4.44,4.48-6.86l4.62-7.6c1.63-2.6,3.31-5.26,5.09-7.89,3.55-5.27,7.38-10.44,11.46-15.39a189.39,189.39,0,0,1,27.24-27.14c2.5-2,5.08-4,7.71-5.88,1.29-.92,2.73-2,3.8-2.57s2.36-1.58,3.6-2.47c2.48-1.82,5.17-3.86,8-5.77a40.9,40.9,0,0,1,9.34-4.83l-2.67,9.76a92.29,92.29,0,0,1-3,9.55,48.67,48.67,0,0,1-2.27,4.92l-2.54,4.44q-2.43,4.14-5,8.12a302.93,302.93,0,0,1-22.28,30c-4,4.75-8,9.4-12.34,14a151.35,151.35,0,0,1-14.33,13.69,59,59,0,0,1-9.14,6.23,51.74,51.74,0,0,1-10,4.15,73,73,0,0,1-20.35,2.82"/><path class="cls-4" d="M964.26,730.89a65.24,65.24,0,0,1,2.3-7.18c.92-2.3,1.92-4.57,3-6.8s2.25-4.38,3.46-6.51,2.47-4.2,3.77-6.26a234,234,0,0,1,17.1-23c6-7.25,12.24-14.17,18.47-21,1.61-1.71,3.09-3.45,4.68-5.17s3.08-3.48,4.65-5.24l1.2-1.32c.39-.44.73-.91,1.12-1.35.77-.91,1.52-1.82,2.33-2.73s1.51-1.86,2.28-2.82,1.56-1.92,2.43-2.89c0,1.27-.07,2.52-.15,3.79a29.78,29.78,0,0,1-.46,3.78,55.89,55.89,0,0,1-1.8,7.35l-1.21,3.59c-.39,1.22-.93,2.32-1.4,3.48s-1,2.29-1.52,3.44-1.11,2.21-1.69,3.32a139.75,139.75,0,0,1-16.52,24.15,228.46,228.46,0,0,1-19.77,20.75c-1.73,1.62-3.48,3.23-5.3,4.8s-3.57,3.15-5.42,4.69-3.67,3.11-5.62,4.61-3.8,3.09-5.91,4.54"/><path class="cls-2" d="M757.6,958.3a6.5,6.5,0,0,1-6-3.07c-3.56-6.09,3.09-18.47,17.25-43.68,9-16,19.18-34.14,26-51.28,5.31-13.25,16.91-25.64,25.38-34.69,4.45-4.74,8.29-8.84,9.83-11.53,16-27.93,32.48-56.81,58-85.55,14.26-16,27.53-23.79,40.6-23.79a32.32,32.32,0,0,1,3.81.22c6,.7,11.75,4.46,17.35,8.09,1.43.93,2.86,1.86,4.31,2.74,12.45,7.63,25.4,17.13,27,29.82,1.22,9.41-3.54,19.35-15,31.28-29.72,31-64.38,64.66-88.32,85.77a103.64,103.64,0,0,0-7,8.17c-15.73,19.28-52.55,64.42-105.3,85.52a22.76,22.76,0,0,1-8.09,2Z"/><path class="cls-1" d="M928.77,708a28.3,28.3,0,0,1,3.43.2c6.61.78,13.39,6.11,20.35,10.37C979,734.7,988.66,748.86,964,774.62c-26.83,28-61.75,62.33-88.12,85.58-7.62,6.72-47.78,67.68-111.36,93.11a19.84,19.84,0,0,1-6.89,1.75c-15.74,0,23-50.25,40.32-93.58,7.84-19.61,30.11-37.26,35-45.82,17.64-30.85,33.2-57.51,57.66-85,12-13.49,24.72-22.71,38.18-22.71m0-6.48c-14,0-28.12,8.14-43,24.88-25.8,29-42.4,58-58.46,86.09-1.35,2.36-5.24,6.52-9.37,10.93-8.65,9.23-20.49,21.88-26,35.7-6.78,16.94-16.92,35-25.86,50.9-15.55,27.7-21.69,39.24-17.21,46.9,1,1.74,3.51,4.66,8.76,4.66a25.55,25.55,0,0,0,9.3-2.2c53.52-21.41,90.71-67,106.6-86.48,2.9-3.56,5.64-6.92,6.63-7.8,24-21.16,58.75-54.9,88.51-85.95,12.17-12.69,17.21-23.48,15.86-33.94C982.68,731.12,969,721,955.93,713c-1.4-.85-2.84-1.79-4.23-2.7-5.91-3.83-12-7.79-18.74-8.58a34.64,34.64,0,0,0-4.19-.25Z"/><path class="cls-1" d="M925.28,770.19a43.77,43.77,0,0,1-13.77-6.71,60.61,60.61,0,0,1-11.16-10.3c-.81-1-1.61-2-2.36-3l-2-2.71c-1.35-1.8-2.9-3.6-4.38-5.6a43.15,43.15,0,0,1-4.18-6.51,19.41,19.41,0,0,1-2.2-7.62c4,3.5,7.7,5.86,11.68,8.79a53,53,0,0,1,5.84,4.9c.47.48.93.95,1.39,1.46l1.27,1.47,2.25,2.7c3,3.61,6,7.25,9,11a129.18,129.18,0,0,1,8.7,12.1"/><path class="cls-1" d="M838,799a88.17,88.17,0,0,1,9.74,7.68c3,2.57,5.74,5.15,8.53,7.81a114.68,114.68,0,0,1,8.18,8.53,47,47,0,0,1,7,10.49,43.3,43.3,0,0,1-11.79-4.72,50.08,50.08,0,0,1-10-7.45,42.15,42.15,0,0,1-7.78-10A30.75,30.75,0,0,1,838,799"/><path class="cls-1" d="M831,858.35a23.74,23.74,0,0,1,6.6,2.59,37.33,37.33,0,0,1,5.44,3.68,36.82,36.82,0,0,1,4.7,4.57,24,24,0,0,1,3.86,6,18.6,18.6,0,0,1-7-1.76,26.34,26.34,0,0,1-5.79-3.62,27,27,0,0,1-4.7-4.95,18.74,18.74,0,0,1-3.13-6.47"/><path class="cls-1" d="M979.92,774.24a27,27,0,0,1-12.87-4,44.43,44.43,0,0,1-10.24-8.48,73,73,0,0,1-7.71-10.24A79.63,79.63,0,0,1,943.05,740a40,40,0,0,1,11.14,7.11,104,104,0,0,1,8.93,8.88c2.76,3,5.36,6,8.09,9s5.58,5.87,8.71,9.22"/><path class="cls-1" d="M881.2,788.62a33.76,33.76,0,0,1,8.82,3.21,41.75,41.75,0,0,1,7.22,4.76,40.12,40.12,0,0,1,6.14,6.15,29.07,29.07,0,0,1,4.73,8.19,24.15,24.15,0,0,1-9.29-2.27,33.68,33.68,0,0,1-7.58-4.71,33.18,33.18,0,0,1-6.14-6.53,22,22,0,0,1-3.9-8.8"/><path class="cls-1" d="M796.44,892a24.37,24.37,0,0,1,6.6,2.59,38.21,38.21,0,0,1,5.44,3.69,36.82,36.82,0,0,1,4.7,4.57,23.93,23.93,0,0,1,3.86,6,18.6,18.6,0,0,1-7-1.77,26.16,26.16,0,0,1-5.79-3.61,27,27,0,0,1-4.7-4.95,18.7,18.7,0,0,1-3.13-6.48"/><path class="cls-1" d="M561.48,378.61a223.08,223.08,0,0,0,14.85,18.05,218.56,218.56,0,0,0,16.38,16.12,224.57,224.57,0,0,0,37.5,27,217.57,217.57,0,0,0,20.51,10.36c.88.4,1.78.78,2.67,1.16a2,2,0,0,0,2.6-.68,1.92,1.92,0,0,0-.68-2.6,219.54,219.54,0,0,1-40-22.17c-1.54-1.07-3.07-2.17-4.58-3.28l-2.33-1.74-1.08-.82-.31-.24-.11-.09-.19-.15-.39-.29q-4.47-3.5-8.77-7.21a222.39,222.39,0,0,1-16.52-15.83q-3.91-4.17-7.63-8.54c-1.23-1.45-2.44-2.93-3.64-4.42-.58-.72-1.17-1.46-1.74-2.2l-.42-.53-.24-.31h0l-.94-1.23c-.57-.75-1.13-1.5-1.69-2.26a2,2,0,0,0-2.6-.68,1.91,1.91,0,0,0-.68,2.6"/><path class="cls-1" d="M661.4,1016.63a39.41,39.41,0,0,1-12.68-6.79,44.17,44.17,0,0,1-9.81-10.71,42.41,42.41,0,0,1-5.7-13.42,36.32,36.32,0,0,1-.53-14.43c2.65,4.16,4.67,8.2,6.83,12.07s4.27,7.54,6.58,11.14,4.8,7.09,7.43,10.67,5.38,7.23,7.88,11.47"/><path class="cls-1" d="M647.84,972.65c4.43-.56,8.6-.8,12.8-1s8.36-.36,12.57-.34a111.58,111.58,0,0,1,12.73.7,50.71,50.71,0,0,1,12.71,3,94,94,0,0,1-12.73,2.24,110.4,110.4,0,0,1-12.74.72,75.7,75.7,0,0,1-12.88-1.11,41.23,41.23,0,0,1-12.46-4.16"/><path class="cls-1" d="M386.21,398c10.69,1.41,21.15,2.07,31.68,2.43s21,.37,31.51.16,21-.69,31.48-1.49,20.94-2,31.61-3.58c-2.4,1.2-4.85,2.38-7.35,3.43s-5.05,1.91-7.62,2.77-5.19,1.55-7.81,2.25-5.26,1.22-7.92,1.8a194.53,194.53,0,0,1-64.53,1.33c-2.67-.41-5.34-.85-8-1.46l-4-.86-3.93-1.06A81.57,81.57,0,0,1,386.21,398"/><path class="cls-5" d="M1129,441.28c-2.83-19.56-7.11-57.63-21.08-71.9-21.34-21.8-98.1,7.29-111.35,47.36-4.11,12.44-1.23,20.37-3.15,33.33-3,20.36-17.27,36.88-28.48,54.14-15.9,24.48-16.79,47.71-6.22,74.29,11.64,29.28,37,50.71,68.58,49.62a72.1,72.1,0,0,0,14.94-2.11,70.46,70.46,0,0,0,25-11.76c20-11,35.64-32.16,46.92-57.8C1129.47,521.56,1134.55,479.52,1129,441.28Z"/><path class="cls-1" d="M1045.07,606.19a64.23,64.23,0,0,1-36.06-1.5,62.39,62.39,0,0,1-8.5-3.66,58,58,0,0,1-21-18.45,54.59,54.59,0,0,1-4.68-8.35,51.92,51.92,0,0,1-3.21-9.09,53.92,53.92,0,0,1-1.53-9.57,55.49,55.49,0,0,1,.22-9.73,56.32,56.32,0,0,1,17.09-34.11l-.24.26c1.25-1.44,2.57-3.14,3.83-4.77s2.49-3.34,3.69-5.06c2.37-3.43,4.65-7,6.75-10.56a113.62,113.62,0,0,0,10.35-22.86,71.41,71.41,0,0,0,3.58-24.73c0-1-.12-2.08-.21-3.13l-.16-1.57c-.05-.55-.13-1.09-.16-1.65a39.91,39.91,0,0,1,0-6.65,35.7,35.7,0,0,1,3.51-12.84,44.48,44.48,0,0,1,7.59-10.9,68.82,68.82,0,0,1,10-8.65,126.5,126.5,0,0,1,22.9-12.67c2-.88,4-1.72,6-2.53a46.35,46.35,0,0,1,6.54-2.14,28.82,28.82,0,0,1,14.47,0,24.93,24.93,0,0,1,6.9,3.1,28.7,28.7,0,0,1,5.61,4.84,44.41,44.41,0,0,1,7.48,12c3.64,8.48,5.42,17.28,6.58,26a181.18,181.18,0,0,1,1.25,26.31c-.08,4.39-.3,8.76-.71,13.14-.19,2.18-.44,4.4-.71,6.55l-.74,6.28c-.92,8.42-1.72,16.94-2.7,25.5s-2.13,17.15-3.85,25.69c-.83,4.28-1.89,8.52-3,12.74s-2.52,8.4-4.07,12.51a96.34,96.34,0,0,1-12.39,23.24,69.35,69.35,0,0,1-8.79,9.79,61.93,61.93,0,0,1-10.54,7.71l.06,0a63,63,0,0,1-21.06,9.54m-.23-.92a56.4,56.4,0,0,0,10.7-3.91,54.07,54.07,0,0,0,9.62-6h0l0,0a54.33,54.33,0,0,0,17-18.23,91.9,91.9,0,0,0,9.21-23.17,206.77,206.77,0,0,0,4.7-24.69c1.14-8.34,2.05-16.74,2.8-25.21s1.44-17,2.39-25.61c.23-2.15.47-4.3.77-6.46s.53-4.13.73-6.21c.4-4.15.73-8.32.9-12.48a182.11,182.11,0,0,0-.6-25c-.84-8.22-2.31-16.4-5.24-23.77a36.3,36.3,0,0,0-5.67-9.95,19.2,19.2,0,0,0-8.57-6.09,22.76,22.76,0,0,0-10.94-.58,43.29,43.29,0,0,0-5.75,1.46q-3,1-6,2a115,115,0,0,0-22.78,10.6c-7,4.43-13.38,10.19-17.14,17.53a32.74,32.74,0,0,0-3.36,11.74,35.32,35.32,0,0,0,0,6.17c0,.51.12,1,.17,1.54l.19,1.62c.12,1.09.23,2.17.3,3.27a87.78,87.78,0,0,1-2.49,26,126.44,126.44,0,0,1-8.9,24.65c-1.9,4-4,7.81-6.23,11.56-1.13,1.88-2.3,3.74-3.53,5.57s-2.46,3.6-3.92,5.47l0,0-.2.21A54.1,54.1,0,0,0,978.6,546.9a52.69,52.69,0,0,0,23.5,51.39,56.85,56.85,0,0,0,7.78,4.16,54.38,54.38,0,0,0,35,2.82"/><path class="cls-1" d="M1008.88,481.12a20.67,20.67,0,0,0,7.65,3.9,31.48,31.48,0,0,0,8.29,1.11,47.21,47.21,0,0,0,8.31-.66,38.23,38.23,0,0,0,7.89-2c5-1.94,9-4.79,11.54-8.64a22.57,22.57,0,0,0,2.92-6.37,29.06,29.06,0,0,0,.81-3.6c0-.31.1-.61.14-.93l.14-1c.11-.77.2-1.54.34-2.33a48.15,48.15,0,0,1,2.47-9.62,31.89,31.89,0,0,1,5.44-9.12,36.3,36.3,0,0,1,7.85-6.62l1-.65,1.2-.67a26.18,26.18,0,0,1,2.47-1.14,24.31,24.31,0,0,1,5.12-1.44,30.33,30.33,0,0,1,19.5,3.18,25.93,25.93,0,0,1,7.54,6,17.83,17.83,0,0,1,4.08,8.31,23.37,23.37,0,0,0-13.77-8.94,27.71,27.71,0,0,0-15.2.37,18.37,18.37,0,0,0-3.22,1.42,14.13,14.13,0,0,0-1.46.88l-.68.49-.76.61a29.68,29.68,0,0,0-5.26,5.17,23.35,23.35,0,0,0-3.29,6.16,45.57,45.57,0,0,0-1.86,7.49l-.33,2-.19,1.19c-.07.41-.15.82-.23,1.24a38.92,38.92,0,0,1-1.37,5,29.74,29.74,0,0,1-5.15,9.27,27.37,27.37,0,0,1-8.22,6.71,32.86,32.86,0,0,1-4.71,2,37.14,37.14,0,0,1-4.83,1.22,51.72,51.72,0,0,1-9.53.79,44.37,44.37,0,0,1-9.34-1.08,30.77,30.77,0,0,1-8.76-3.37,19,19,0,0,1-6.59-6.32"/><path class="cls-1" d="M974.78,562.38A117.9,117.9,0,0,0,994,565.66a89.27,89.27,0,0,0,18.59-.28,65.23,65.23,0,0,0,17.09-4.4,21.15,21.15,0,0,0,1.93-.89l1.91-.92c.62-.34,1.21-.71,1.81-1.06s1.23-.67,1.77-1.1a38.73,38.73,0,0,0,3.3-2.46l1.57-1.32c.49-.46.94-1,1.41-1.46s1-.92,1.42-1.46l1.28-1.58.65-.79c.2-.28.38-.57.56-.86.38-.57.75-1.15,1.14-1.71a15.63,15.63,0,0,0,1-1.78l1-1.83c.6-1.26,1.08-2.59,1.68-3.87l1.37-4.08c.34-1.41.68-2.84,1-4.27a80.49,80.49,0,0,0,1.27-8.94,122.09,122.09,0,0,0,.14-18.86c-.07-3.23-.49-6.45-.7-9.74-.09-1.65-.35-3.28-.5-4.93s-.32-3.32-.41-5a97.41,97.41,0,0,1,4.74,8.92,90.71,90.71,0,0,1,3.75,9.43,80.22,80.22,0,0,1,4.19,20.25,59.83,59.83,0,0,1-2.07,21.51c-.6,1.78-1.2,3.55-1.92,5.3l-1.21,2.57a27.71,27.71,0,0,1-1.31,2.54L1059,555c-.25.4-.5.81-.77,1.21l-.89,1.13-1.79,2.27a28,28,0,0,1-2,2.12c-.69.67-1.35,1.38-2.07,2l-2.22,1.83a21.15,21.15,0,0,1-2.29,1.73c-.79.53-1.58,1.07-2.38,1.58s-1.66.91-2.48,1.37-1.68.89-2.52,1.3l-2.59,1.09a21.12,21.12,0,0,1-2.62,1,54.05,54.05,0,0,1-5.32,1.49c-.9.21-1.79.41-2.69.58l-2.69.38a61.52,61.52,0,0,1-10.74.49,67.31,67.31,0,0,1-20.51-4.08,58.37,58.37,0,0,1-17.7-10.08"/><path class="cls-4" d="M304.23,359.38a13.52,13.52,0,1,0,6.39,18,13.49,13.49,0,0,0-6.39-18"/><path class="cls-4" d="M338.63,370.76a16.37,16.37,0,0,0-21.94,8.09c-4.16,8.78-1.09,18.94,6.87,22.72s15.54-1.75,21.94-9c7.81-8.91,1.09-18-6.87-21.77"/><path class="cls-4" d="M337.51,326.1c-9.93-4.72-21.56-1-26,8.28s.08,20.64,10,25.35,21.57,2,26-7.33-.07-21.58-10-26.3"/><path class="cls-4" d="M339.48,413.88c-.64,7.68,4.66,14.38,11.83,15s13.51-5.14,14.15-12.82-3.71-18.18-10.89-18.77-14.46,8.94-15.09,16.62"/><path class="cls-4" d="M350,291.83c-7.54-3.58-16.36-.77-19.7,6.28s.05,15.66,7.59,19.23,14.46,2.67,17.8-4.37,1.85-17.57-5.69-21.14"/><path class="cls-1" d="M383,298.79a38.37,38.37,0,0,1,.74,5.6c.14,1.86.19,3.7.23,5.53.05,3.66-.05,7.26-.15,10.81-.23,7.06-.59,14.06-.12,20.32.1.75.14,1.55.28,2.25l.16,1.07.22,1a13.3,13.3,0,0,0,1.14,3.2,4,4,0,0,0,1.48,1.55l.25.16a3.18,3.18,0,0,0,.33.1,4.24,4.24,0,0,0,.71.22l.86.15a4.64,4.64,0,0,0,.61,0l.67,0a109.46,109.46,0,0,1,21.84,3,110.12,110.12,0,0,1-21.21,6l-.67.12a5,5,0,0,1-.73.12c-.61.06-1.23.11-1.85.15a12,12,0,0,1-2-.1c-.33,0-.66-.07-1-.13l-1-.26a9.48,9.48,0,0,1-2-.73,9.91,9.91,0,0,1-1.91-1.08,15.29,15.29,0,0,1-1.69-1.37c-.48-.5-1-1-1.43-1.55a19.9,19.9,0,0,1-3.25-6.59,32.8,32.8,0,0,1-1.15-6.3,55.1,55.1,0,0,1,.4-11.69,80.73,80.73,0,0,1,2.23-11,104.14,104.14,0,0,1,3.5-10.45c1.35-3.43,2.86-6.74,4.52-10.14"/><path class="cls-1" d="M483.47,265.64a92.4,92.4,0,0,1,8.6,19.72,136.84,136.84,0,0,1,4.8,21,125.62,125.62,0,0,1,1.38,21.5,74.06,74.06,0,0,1-3.31,21.31c-.48-7.19-1.11-14.14-1.91-21.09s-1.73-13.84-2.73-20.75-2.13-13.79-3.3-20.71-2.39-13.83-3.53-20.94"/><path class="cls-4" d="M668.26,812.09a119.49,119.49,0,0,1,39.48-2.65c3.66.4,36.2,7.59,30.76,14.85-8.06,10.74-20.78,2.88-28.36,12.14-5.44,6.65-3.62,24.82-8.36,31.57-3.6,5.14-12.72-7.89-15.38-11.21-3.09-3.84-4.7-8.6-7.36-12.72s-5-8.92-9.65-10.14c-7.89-2.08-25.15,12-32.63,8.73-5-2.18,3.17-13,5.09-15.44,6.49-8.13,15.92-12.71,26.41-15.13"/><path class="cls-1" d="M668.36,812.51a43.24,43.24,0,0,0-15.51,6.69,33.63,33.63,0,0,0-6.12,5.59,41.2,41.2,0,0,0-4.61,6.72c-.67,1.19-1.31,2.4-1.85,3.59a20.87,20.87,0,0,0-1.3,3.44,5,5,0,0,0-.2,1.3c0,.31.13.33,0-.06a1.42,1.42,0,0,0-.36-.46l-.12-.1.12,0a4.1,4.1,0,0,0,1,.08,13.28,13.28,0,0,0,3.15-.57c1.18-.33,2.42-.76,3.68-1.24,2.52-1,5.13-2.07,7.84-3.13a60.84,60.84,0,0,1,8.62-2.75,18.19,18.19,0,0,1,5.06-.47,10.47,10.47,0,0,1,1.42.19,8.72,8.72,0,0,1,1.39.43,11,11,0,0,1,2.39,1.29c2.89,2.11,4.4,4.9,5.83,7.42l1,1.88,1.08,1.89c.71,1.31,1.37,2.62,2,3.92a42,42,0,0,0,4.15,7.26c1.78,2.21,3.53,4.49,5.41,6.56a40.34,40.34,0,0,0,2.93,2.92,13,13,0,0,0,3.13,2.16,2.32,2.32,0,0,0,1.21.27c.22-.06.24-.08.45-.34l.07-.11.1-.18.2-.38c.12-.27.25-.53.36-.82a16,16,0,0,0,.56-1.81,49.36,49.36,0,0,0,1.12-8.12c.22-2.81.38-5.69.68-8.65a36.16,36.16,0,0,1,2-9.24,15.51,15.51,0,0,1,1.23-2.44,13.93,13.93,0,0,1,.84-1.22l.87-1a16.09,16.09,0,0,1,4.39-3.42,20.9,20.9,0,0,1,5-1.83,44.2,44.2,0,0,1,4.64-.82,37,37,0,0,0,7.51-1.48,10.55,10.55,0,0,0,4.81-3.52l.25-.31.06-.07s0,0,0,0,0,0,0,.06a1.47,1.47,0,0,0-.24.68,1.87,1.87,0,0,0,.05.9.73.73,0,0,0,.13.29,3.82,3.82,0,0,0-.56-.55,13.92,13.92,0,0,0-1.25-.87A44.05,44.05,0,0,0,726,818.8c-2.52-1-5.16-1.85-7.8-2.72s-5.33-1.68-8-2.45l-2-.56-.82-.22-1-.2c-1.36-.28-2.74-.51-4.12-.74a102.05,102.05,0,0,0-16.9-1.39,80.93,80.93,0,0,0-17,2m-.19-.83c5.6-1.31,11.22-2.5,16.94-3.51a132.4,132.4,0,0,1,17.45-2.08c1.48-.05,3-.08,4.44-.07h1.12c.53,0,.9.07,1.3.11.78.07,1.52.16,2.26.26,2.94.41,5.83.93,8.7,1.61s5.73,1.49,8.6,2.43a46.41,46.41,0,0,1,8.69,3.8,22.09,22.09,0,0,1,2.28,1.59,11.86,11.86,0,0,1,2.4,2.54,8.41,8.41,0,0,1,1.06,2.23,7,7,0,0,1,.22,3,7.45,7.45,0,0,1-1,2.69l-.33.5-.17.24-.1.13-.43.53a18.68,18.68,0,0,1-4.12,3.74,19.6,19.6,0,0,1-5,2.36,41.08,41.08,0,0,1-9.4,1.41,21.06,21.06,0,0,0-7,1.32,9.37,9.37,0,0,0-2.51,1.64l-.55.56c-.15.19-.28.32-.42.52a8.94,8.94,0,0,0-.79,1.34,32.42,32.42,0,0,0-2.3,7.37c-.61,2.7-1.11,5.52-1.68,8.37a56.21,56.21,0,0,1-2.31,8.71,19.36,19.36,0,0,1-1,2.2c-.18.36-.42.72-.63,1.08l-.37.53-.2.27-.25.32a4.73,4.73,0,0,1-1.42,1.12,4.36,4.36,0,0,1-1.84.44,6.06,6.06,0,0,1-2.9-.81,17.11,17.11,0,0,1-3.73-3c-1.07-1.07-2-2.19-3-3.32-1.87-2.27-3.54-4.6-5.29-6.89a58.74,58.74,0,0,1-4.42-7.63c-.68-1.25-1.35-2.49-2.11-3.64L677.2,844,676,842.24c-1.61-2.29-3.4-4.41-5.39-5.41a6.08,6.08,0,0,0-1.51-.5,3,3,0,0,0-.69-.09l-.72,0a14.11,14.11,0,0,0-3.4.92,78.14,78.14,0,0,0-7.36,3.56c-2.51,1.3-5.08,2.65-7.87,3.83a36.58,36.58,0,0,1-4.43,1.59,17.51,17.51,0,0,1-5.31.78,10.46,10.46,0,0,1-3.26-.55c-.29-.1-.55-.21-.88-.36a6.49,6.49,0,0,1-1-.63,6,6,0,0,1-1.79-2,6.78,6.78,0,0,1-.69-4.24,12.15,12.15,0,0,1,.78-2.87,31.56,31.56,0,0,1,5.16-8,41.13,41.13,0,0,1,6.53-6.32,43.48,43.48,0,0,1,7.63-4.69,77.57,77.57,0,0,1,16.45-5.61"/><path class="cls-1" d="M658.65,757.58A30.28,30.28,0,0,1,664.18,769a40.74,40.74,0,0,1-1.53,25.1,30.34,30.34,0,0,1-6.89,10.61c.6-4.22,1.32-8.1,1.84-12s.92-7.66,1.16-11.47.32-7.64.26-11.54-.28-7.84-.37-12.11"/><path class="cls-4" d="M676.75,799.83c7.71,5.85-2.45,25-2.15,26.4,1.26,2.13,17.53,6.53,17.12,7.06,9.83-12.64,6.07-32.47-8-43.1-6.42-4.87-13.39,4.81-7,9.64"/><path class="cls-4" d="M918.82,292.73c-7.7,7.77-15.64,13.87-16.85,7.44-.53-2.86,1-11.94,2.43-19.6a38.65,38.65,0,0,1-6.34,1.54,45.32,45.32,0,0,1-7,.53c-.72,0-1.46,0-2.19-.05s-1.27-.08-1.88-.14c-.37,8.83-1.42,17-6.27,15.26-3-1.06-6.39-8.57-9.51-16a49.23,49.23,0,0,1-4.67,5.79c-.64.69-1.3,1.35-2,2,3.31,5.86,5.84,12.74,5.63,19.93-.58,19.74-.2,36.48-.35,37.14-2.54,11.62,49.77,10.4,56.63,8.5-.8-18-9.88-29.22-3.71-47.81,1.25-3.75,5-7.19,9.12-10.41q-4.66-1.16-9.67-2.79A32.74,32.74,0,0,1,918.82,292.73Z"/><path class="cls-4" d="M972.7,215.53a47.88,47.88,0,0,0-6.19.4,16.46,16.46,0,0,1-2.21.12h-1.19a14.07,14.07,0,0,0-2.26.14,22.41,22.41,0,0,0-2.36.49l-.78.22c-1-13.52-9.52-23.33-22.36-28.2a36.39,36.39,0,0,0-13-2.33h-1.05a42.18,42.18,0,0,0-5.12.47c-6.62,1-13.83,5.59-19,9.55a1,1,0,0,1-.65.21c-3.64,0-14.61-13.49-22.72-13.49l-.46,0c-22.85,1.49-30.2,13.5-28.65,27.23a48.8,48.8,0,0,0-12.38-1.65c-7.87,0-15.88,2.12-21,8a22.88,22.88,0,0,0-3,25.61c2.45,4.44,8.53,8.15,11.07,12.54,3.44,5.94-2.84,17.07-.17,23.38,4.25,10,13.32,14.38,23.22,14.38a36.47,36.47,0,0,0,5.57-.45c10.11-1.59,20-12.95,24.19-24.87,4.43,5.63,8.91,9.19,16.93,9.55.64,0,1.28,0,1.92,0a38.88,38.88,0,0,0,6.07-.46A28.26,28.26,0,0,0,908.79,272a19.13,19.13,0,0,0,7.58,12.67,28.2,28.2,0,0,0,7.69,3.87c8.66,2.82,19.06,5.34,28.36,5.34a35,35,0,0,0,11.71-1.77c17.44-6.22,38.7-20.29,42-35.17C1012.1,229.66,993.66,215.53,972.7,215.53ZM876.53,238a8.52,8.52,0,0,1-1.21,3.91,14.37,14.37,0,0,0-1.86-3.09,13.82,13.82,0,0,0-2.26-2.11,12.7,12.7,0,0,0-4.86-2.17,11.07,11.07,0,0,0-2.23-.19,14.42,14.42,0,0,0-2.07.31,14.06,14.06,0,0,0-4.09,1.77,17.92,17.92,0,0,0-3.66,3.11,19,19,0,0,0-2.86,4.39,30.17,30.17,0,0,0-2.06,5.81c-.27,1.08-.5,2.2-.72,3.38l-.6,3.73a18.84,18.84,0,0,1-5.34-14.91,21.18,21.18,0,0,1,.82-4.33,19.72,19.72,0,0,1,12.64-12.85,18,18,0,0,1,4.8-.87,16.84,16.84,0,0,1,5,.56,15.52,15.52,0,0,1,4.45,2.07,16.2,16.2,0,0,1,3.39,3.21,14.53,14.53,0,0,1,2.15,4A12.1,12.1,0,0,1,876.53,238Zm58.65-2.62a15,15,0,0,1-4.51,5.91,17.11,17.11,0,0,1-6.9,3.32,16.14,16.14,0,0,1-8-.2,17.29,17.29,0,0,1-6.85-3.84,18.3,18.3,0,0,1-4.42-6.06,17.77,17.77,0,0,1-1.61-7,13.57,13.57,0,0,1,1.48-6.71,28.76,28.76,0,0,0,5.82,10.16,17.27,17.27,0,0,0,7.94,5.21,14.56,14.56,0,0,0,9.06-.63,16.76,16.76,0,0,0,4.56-2.57,15.05,15.05,0,0,0,3.88-4.6A10.09,10.09,0,0,1,935.18,235.33Zm35.06,21.95a20.46,20.46,0,0,1-10.34,7,19.51,19.51,0,0,1-11.74-.08c3.31-2.24,6.27-4,8.86-6a33.21,33.21,0,0,0,6.47-6.15,21.64,21.64,0,0,0,3.66-7.49,18.66,18.66,0,0,0,.14-9.82,9.71,9.71,0,0,1,4.59,4.05,14.46,14.46,0,0,1,2,6.1A17.65,17.65,0,0,1,970.24,257.28Z"/><path class="cls-1" d="M493.3,576.94a30.89,30.89,0,0,1,7.18-5.49,24.24,24.24,0,0,1,8.75-2.85,18,18,0,0,1,9.64,1.44,13.32,13.32,0,0,1,6.74,6.73,70.14,70.14,0,0,0-8.31-1,48.3,48.3,0,0,0-7.21.34c-2.45.27-5,.67-7.8,1a27.89,27.89,0,0,1-9-.18"/><path class="cls-4" d="M511.24,427.35c-3.76,11.53-37.53,4.61-46.66,6.21-10,1.76-17.18,7.83-23.21,15.66-.66.85-10.35,14.42-10.51,14.12,9.2,16.79,38.11,16,51.88,6.25,13.34-9.49,23.48-26.83,28.5-42.24"/><path class="cls-1" d="M511.24,427.35A89.39,89.39,0,0,1,500.93,453a80.56,80.56,0,0,1-8.27,11.39,62,62,0,0,1-5.05,5.08c-.86.82-1.85,1.53-2.78,2.3a30.21,30.21,0,0,1-3.09,2.13A44.14,44.14,0,0,1,468,479.09a50.79,50.79,0,0,1-14.62.88,38.92,38.92,0,0,1-14.48-4,28.79,28.79,0,0,1-6.44-4.49,25.45,25.45,0,0,1-4.9-6.34l6.61-3.64c-1.2-2.65-5.68-1.76-4.61-1.7a3.23,3.23,0,0,0-.84.45,1.83,1.83,0,0,0-.29.23l-.14.13h0l.17-.19.4-.52.88-1.13,1.76-2.35,3.55-4.76,1.77-2.39.89-1.2c.3-.4.58-.8,1-1.28a61.87,61.87,0,0,1,4.18-4.72,41.35,41.35,0,0,1,10.25-7.81,32.56,32.56,0,0,1,6.06-2.48c1-.33,2.11-.56,3.17-.79l1.6-.28c.56-.07,1.22-.15,1.76-.16a51.48,51.48,0,0,1,6.29.2c2,.15,4,.38,6,.58q5.92.65,11.79,1.09a69,69,0,0,0,11.68,0,20.79,20.79,0,0,0,5.59-1.3,7.59,7.59,0,0,0,4.2-3.78m0,0a7.83,7.83,0,0,1-3.71,4.72,20.64,20.64,0,0,1-5.72,2.29,61.24,61.24,0,0,1-12.08,1.57c-4,.2-8,.13-12,.11l-5.92,0a48.12,48.12,0,0,0-5.62.24,11.55,11.55,0,0,0-1.2.21l-1.31.32a24.75,24.75,0,0,0-2.57.81,27.85,27.85,0,0,0-4.83,2.32,37.25,37.25,0,0,0-8.32,7c-1.24,1.38-2.44,2.82-3.56,4.34L441,456l-3.47,4.88-1.79,2.44-.93,1.23-.52.65-.32.39-.24.26-.12.12-.16.15c-.12.1-.2.18-.35.29a4.21,4.21,0,0,1-.89.47c1.06.07-3.44,1-4.65-1.7l-.12-.25a3.77,3.77,0,0,1,6.73-3.39,19.66,19.66,0,0,0,8.21,7.75,33.85,33.85,0,0,0,11.71,3.38,46.94,46.94,0,0,0,12.63-.36,40,40,0,0,0,12-3.81,27.62,27.62,0,0,0,2.65-1.58c.86-.64,1.77-1.21,2.61-1.89a57.16,57.16,0,0,0,4.95-4.27,77.49,77.49,0,0,0,8.79-10,117.49,117.49,0,0,0,13.56-23.44"/><path class="cls-1" d="M415.36,465.08a170.72,170.72,0,0,1,16.92-5.5c5.63-1.57,11.24-3,16.81-4.46s11.12-2.87,16.56-4.53c2.72-.83,5.4-1.73,8-2.81,1.34-.51,2.6-1.13,3.89-1.77a29.09,29.09,0,0,0,3.72-2.38,15.57,15.57,0,0,1-2.35,4,26.54,26.54,0,0,1-3.29,3.33A42.79,42.79,0,0,1,468,456.1a78.07,78.07,0,0,1-17,6.38,106.54,106.54,0,0,1-17.67,3,80.7,80.7,0,0,1-18-.36"/><path class="cls-4" d="M639.49,316.6c-.09-2.76-10.18-12.2-10.29-15.31-.55-14.49-6.6-26.83.83-39.31,10.59,11.44,20.62,25.42,30.63,37.45,26,31.22,39.63,68.16,49.07,107.14,3.77,15.56,19.07,70-6.26,76.41-4.07,1-7.7,26.62-11.14,26,.36-4.42.58-21.4.68-25.9,0-1.64,0-3.28-.09-4.92-2.63-6.64-6-13.1-8.44-19.71-4.29-11.52-7.61-23.35-11.79-34.92-8.53-23.54-25.45-45-29.94-69.79-2.22-12.24-2.84-24.73-3.26-37.14"/><path class="cls-3" d="M706.21,454.58a6.34,6.34,0,0,0-1-3.07,4.08,4.08,0,0,0-1.22-1.7,5.4,5.4,0,0,0-.69-.74,14,14,0,0,0,1.93-6,17.74,17.74,0,0,0-3.7-12.22,29.64,29.64,0,0,0-2.51-2.74,11.73,11.73,0,0,0,.61-1.23,16.09,16.09,0,0,0,.12-11.86,16.69,16.69,0,0,0-5.71-7.78c.73-3.24,0-6.81-1-9.88a21.48,21.48,0,0,0-5.52-8.62,13.78,13.78,0,0,0-2.47-1.86c-2-1.22-2.29-13.95-6.89-17.33-1.27-.93-2.74-1.73-3.54-3.09a12.1,12.1,0,0,1-1.07-4,14.3,14.3,0,0,0-8.14-10.05,16.3,16.3,0,0,0-6.82-14.85,10.32,10.32,0,0,1-3.1-2.56,11.16,11.16,0,0,1-1.1-3.9,12.9,12.9,0,0,0-7.32-9,6.09,6.09,0,0,1-2.48-1.47,5.88,5.88,0,0,1-.85-3.33c-.58-6.52-5.36-8.08-7.83-13.09-1.72-3.47-.66-9.81-3.69-12.44-1.29-1.12-2.91-1.87-4-3.2s-1.46-3.24-2.1-4.91a14.38,14.38,0,0,0-6.9-7.64,6.25,6.25,0,0,1-2.5-1.68,5.62,5.62,0,0,1-.64-3.12,16.82,16.82,0,0,0-2.64-9.39c-4.33-6.15-7-3.05-10.08-10.23-2.21-5.15-7.15-8.72-12.73-8.42-.46-1.8-2.24-2.54-3.14-4.14-4.33-7.62-19-11.24-27-12.6-13.43-2.25-23.59,7.13-25.6,20l-.39.36c-3.38,3.27-4.07,7.95-3.55,12.49a8.2,8.2,0,0,0,3.72,6,24.19,24.19,0,0,0,.38,16.46,8,8,0,0,0,2.62,3.51,15,15,0,0,0,0,2.68,16.6,16.6,0,0,0-.16,5.83,20,20,0,0,0,3.93,9.45,13.72,13.72,0,0,0,1.1,1.19,25.34,25.34,0,0,0,1.27,7.24,18.73,18.73,0,0,0,5,7.93,12.33,12.33,0,0,0,3.82,2.4c0,1,0,2,.13,3a21.69,21.69,0,0,0,3.32,9.7,14.49,14.49,0,0,0,6.82,5.52l.4.8c0,.44.1.87.17,1.3a26.48,26.48,0,0,0,3.42,9.95,13.28,13.28,0,0,0,5,4.76c.18.33.36.67.56,1,0,.15,0,.3,0,.45a36.36,36.36,0,0,0,.83,5.88,32.56,32.56,0,0,0,2.29,7.34c1.54,3.08,3.48,5.85,6.66,7.39a10.28,10.28,0,0,0,2.3.8,31.67,31.67,0,0,0,3.91,14.55,12.36,12.36,0,0,0,7.81,5.84c.3.07.59.12.89.16,0,.74.09,1.48.16,2.21a37.23,37.23,0,0,0,1.68,8c1.19,3.49,3.48,6.8,6.84,8.42a11.14,11.14,0,0,0,3.94,1l1.79,2.68a23.91,23.91,0,0,0,2.32,8.17c1.7,3.41,3.89,6.24,7.34,8a11.93,11.93,0,0,0,2.9,1c.52.65,1,1.28,1.56,1.92a21.39,21.39,0,0,0,4.4,10.57,17,17,0,0,0,9.15,5.82c.69.18,1.38.32,2.08.44a19.17,19.17,0,0,0,3.54,8.49c2.79,3.44,6.86,5.62,11.28,5.15a8.8,8.8,0,0,0,2.78,4.55,8.06,8.06,0,0,0,5.93,1.8c1.73-.1.27-4.55,1.55-5.82,15.36,5.89,33.69,8.48,35.53-10.06a8.08,8.08,0,0,0,3.7-3.89,10,10,0,0,0,.68-4.25"/><path class="cls-1" d="M706.54,454.56a10.73,10.73,0,0,1-.14,2.53,10.05,10.05,0,0,1-.78,2.42,8.85,8.85,0,0,1-3.59,3.56l.2-.3a22.74,22.74,0,0,1-1.19,5.49,14.77,14.77,0,0,1-2.9,4.88,13.11,13.11,0,0,1-4.7,3.25,19.08,19.08,0,0,1-5.54,1.33,39.86,39.86,0,0,1-11.23-.79,79,79,0,0,1-10.8-3l1.28-.27s-.06.17-.1.41a6.41,6.41,0,0,0-.06.93c0,.69.06,1.43,0,2.35a3.41,3.41,0,0,1-.54,1.76,2.61,2.61,0,0,1-.22.27,2.78,2.78,0,0,1-.32.26,1.86,1.86,0,0,1-.72.32,2.83,2.83,0,0,1-.37.06h-.16l-.32,0a11,11,0,0,1-2.6-.18,9.07,9.07,0,0,1-2.56-.89A8.81,8.81,0,0,1,657,477.3a10.26,10.26,0,0,1-2.69-4.64l1.91,1.36a13.59,13.59,0,0,1-6.35-.72A16.14,16.14,0,0,1,644.5,470a16.71,16.71,0,0,1-3.76-5.1,26.3,26.3,0,0,1-1.94-5.79l2,2a30.7,30.7,0,0,1-3.35-.7,20.09,20.09,0,0,1-3.3-1.25,19.33,19.33,0,0,1-5.72-4.28,21.13,21.13,0,0,1-3.91-5.93,26.45,26.45,0,0,1-2-6.66l.67,1.52-1.62-1.93,1.74,1.09a16.39,16.39,0,0,1-3.35-1.1,17.79,17.79,0,0,1-3-1.78,19.39,19.39,0,0,1-4.6-4.95,30.09,30.09,0,0,1-1.61-2.77,25.15,25.15,0,0,1-1.27-3,27.09,27.09,0,0,1-1.42-6.28l.56,1.55-1.83-2.7,2.54,1.51a15.2,15.2,0,0,1-4-.84,13.94,13.94,0,0,1-3.69-2.05,17.67,17.67,0,0,1-5-6.13c-.29-.57-.54-1.16-.78-1.75s-.44-1.18-.61-1.73c-.36-1.13-.66-2.27-.91-3.41a43.48,43.48,0,0,1-.92-6.9l3,3.36-1.13-.21c-.36-.09-.67-.18-1-.29a17.65,17.65,0,0,1-1.95-.73,16.62,16.62,0,0,1-3.55-2.22,15.59,15.59,0,0,1-2.86-3.1,22.92,22.92,0,0,1-1.88-3.38,35.86,35.86,0,0,1-3.25-14l2.77,3.34a14.13,14.13,0,0,1-2.11-.64,12.8,12.8,0,0,1-2-1,14.83,14.83,0,0,1-3.37-2.69,20.54,20.54,0,0,1-2.44-3.22c-.33-.55-.65-1.11-.93-1.65l-.42-.83c-.14-.28-.29-.6-.42-.91a35.76,35.76,0,0,1-2.07-7,38.76,38.76,0,0,1-.95-7.2l.43,1.5-.56-1,1.36,1.33a16.56,16.56,0,0,1-4.59-3.73,16.31,16.31,0,0,1-1.71-2.4,23.19,23.19,0,0,1-1.24-2.37,29.07,29.07,0,0,1-1.76-5,37.17,37.17,0,0,1-.89-5.11l.33,1.12-.4-.82,1.65,1.52a18.56,18.56,0,0,1-5.63-3.62,17.81,17.81,0,0,1-2.23-2.59,23,23,0,0,1-1.63-2.8,24.89,24.89,0,0,1-2.05-6,22.14,22.14,0,0,1-.43-3.11l-.11-3.08,1.9,2.83a16.25,16.25,0,0,1-2.91-1.55,16,16,0,0,1-2.5-2.14,21.85,21.85,0,0,1-3.57-5,22.58,22.58,0,0,1-1.21-2.82c-.34-1-.58-1.89-.82-2.86a27.77,27.77,0,0,1-.74-5.89l.85,1.93a25.3,25.3,0,0,1-1.73-2,18.83,18.83,0,0,1-1.4-2.23,23.2,23.2,0,0,1-1.83-4.7,24.7,24.7,0,0,1-.86-4.95,20.6,20.6,0,0,1,.44-5.07l0,.7a17.34,17.34,0,0,1,0-3.14l1,2.2a10.51,10.51,0,0,1-2.33-2.56,12.46,12.46,0,0,1-1.33-3,28.16,28.16,0,0,1-1.18-5.67,26.36,26.36,0,0,1,1.41-11.39l.82,2.35a10.07,10.07,0,0,1-4-5.14,10.72,10.72,0,0,1-.39-1.58c-.06-.26-.08-.54-.12-.8l0-.71a25.26,25.26,0,0,1,0-2.89,16.77,16.77,0,0,1,1.26-5.77,13.19,13.19,0,0,1,3.55-4.87l-.52.95a26.7,26.7,0,0,1,9.17-16.28,21.7,21.7,0,0,1,8.5-4.25,22.86,22.86,0,0,1,9.42-.29,74.31,74.31,0,0,1,17.58,5,29.62,29.62,0,0,1,7.9,5,8.58,8.58,0,0,1,.83.87c.26.31.55.59.79.92.46.65,1,1.45,1.26,1.85s.93.95,1.51,1.54a5.39,5.39,0,0,1,1.43,2.37l-1.09-.8a13.9,13.9,0,0,1,9,2.73,15.47,15.47,0,0,1,3.33,3.38,18.23,18.23,0,0,1,1.24,2l.95,2a8.33,8.33,0,0,0,2.35,2.95,14.79,14.79,0,0,0,1.72,1,17.8,17.8,0,0,1,2,1.2,14.65,14.65,0,0,1,3.42,3.43,14.42,14.42,0,0,1,2.23,4.34,21.86,21.86,0,0,1,.94,4.67c.08.77.1,1.62.14,2.22a2.33,2.33,0,0,0,.31,1.22,2.73,2.73,0,0,0,1,.66,20.8,20.8,0,0,1,2.11,1.06,16.68,16.68,0,0,1,6.59,7.37c.7,1.58,1,3,1.57,4a3.55,3.55,0,0,0,.84,1.13,11.26,11.26,0,0,0,1.44,1.06,22.45,22.45,0,0,1,2,1.41,7.87,7.87,0,0,1,1.93,2.52,17,17,0,0,1,1.38,5c.24,1.51.41,2.94.7,4.13a7,7,0,0,0,.51,1.48l.43.76c.18.24.33.49.51.73a39,39,0,0,0,2.67,3.06,19.85,19.85,0,0,1,3,4,13.64,13.64,0,0,1,1.62,5.21c.11.89.14,1.51.23,1.83,0,.15.07.21.07.19s-.07-.09,0,0a13.83,13.83,0,0,0,1.37.62,16.22,16.22,0,0,1,2.39,1.3,16,16,0,0,1,6.34,8.49,19.12,19.12,0,0,1,.58,2.51,6.28,6.28,0,0,0,.36,1.48,1.35,1.35,0,0,0,.16.3,3.33,3.33,0,0,0,.33.33,15.14,15.14,0,0,0,1.48,1,19.22,19.22,0,0,1,8.37,17.89l-1.69-2.91a17,17,0,0,1,7.19,6.29,16.55,16.55,0,0,1,2,4.36,18,18,0,0,1,.5,2.3c.1.69.19,1.27.3,1.71a2.71,2.71,0,0,0,.42.95,4.7,4.7,0,0,0,1,1l1.61,1.21a8.22,8.22,0,0,1,1.88,2,16.53,16.53,0,0,1,2,4.24,38.58,38.58,0,0,1,1.08,4.12c.3,1.36.55,2.7.8,4,.13.65.26,1.29.41,1.89a9.52,9.52,0,0,0,.47,1.49.19.19,0,0,1,0,.08s0,0,0,0-.09-.09-.15-.11.13.09.18.13c.31.2.63.42.93.65a13.59,13.59,0,0,1,1.71,1.51,22.84,22.84,0,0,1,2.74,3.39,24.47,24.47,0,0,1,3.35,7.89,18.35,18.35,0,0,1,.23,8.6l-.41-1.12a18.45,18.45,0,0,1,4.09,4.59,17.72,17.72,0,0,1,2.26,5.66,18.36,18.36,0,0,1,.35,6.05,14.74,14.74,0,0,1-1.89,5.74l-.1-.7a23,23,0,0,1,3.7,4.59,18.51,18.51,0,0,1,2.12,5.5,18.16,18.16,0,0,1,.31,5.88,14.65,14.65,0,0,1-1.95,5.57l-.07-.45.73.78,0-.05a4.39,4.39,0,0,1,1.31,1.85l0-.06a6.7,6.7,0,0,1,1.06,3.24m-.67,0a5.8,5.8,0,0,0-1-2.9l0,0v0a3.87,3.87,0,0,0-1.13-1.55h0l0-.05-.66-.7-.2-.21.13-.24a13.54,13.54,0,0,0,1.81-5.29,17.66,17.66,0,0,0-.35-5.61,16.33,16.33,0,0,0-2.15-5.17,22.24,22.24,0,0,0-3.68-4.27l-.32-.3.22-.4a13.58,13.58,0,0,0,1.56-5.31,15.79,15.79,0,0,0-.57-5.51,16.22,16.22,0,0,0-2.3-5,16.6,16.6,0,0,0-3.83-3.88l-.54-.4.13-.72a16,16,0,0,0-.68-7.41,21.46,21.46,0,0,0-3.36-6.75,19.91,19.91,0,0,0-2.52-2.75A10.28,10.28,0,0,0,685,389c-.25-.17-.5-.32-.76-.47a2.76,2.76,0,0,1-.25-.14,3.53,3.53,0,0,1-.53-.44,4.1,4.1,0,0,1-.34-.41l-.24-.35a11.82,11.82,0,0,1-.94-2.29c-.22-.7-.4-1.38-.58-2l-1-3.89a38,38,0,0,0-1.17-3.65,12.07,12.07,0,0,0-1.58-3,4,4,0,0,0-.91-.89c-.48-.33-1.06-.68-1.7-1.12a10.52,10.52,0,0,1-2-1.78,7.57,7.57,0,0,1-1.39-2.64c-.26-.86-.38-1.62-.51-2.25a11.18,11.18,0,0,0-.42-1.64,10.89,10.89,0,0,0-1.47-2.93,11.51,11.51,0,0,0-5-4.05l-1.9-.79.21-2.12a13.37,13.37,0,0,0-6-12.3,19.19,19.19,0,0,1-2.1-1.49,8,8,0,0,1-1.18-1.26,6.68,6.68,0,0,1-.92-1.61,13.09,13.09,0,0,1-.72-2.75,12,12,0,0,0-.38-1.78,10.12,10.12,0,0,0-4-5.33,10,10,0,0,0-1.46-.81,11.56,11.56,0,0,1-2.54-1.34,5.53,5.53,0,0,1-1.49-1.68,6.78,6.78,0,0,1-.7-1.85,21.61,21.61,0,0,1-.29-2.53c-.18-2.33-1.15-4-3.06-6.12a37.53,37.53,0,0,1-3-3.66c-.24-.35-.46-.73-.69-1.1l-.61-1.18a12.14,12.14,0,0,1-.84-2.69c-.32-1.67-.42-3.16-.59-4.55a13.15,13.15,0,0,0-.78-3.53,3.47,3.47,0,0,0-.65-1c-.39-.36-.92-.74-1.53-1.19a14.37,14.37,0,0,1-2-1.66,8.26,8.26,0,0,1-1.65-2.45c-.75-1.69-1-3.15-1.46-4.25a11.9,11.9,0,0,0-1.89-3.22,12.45,12.45,0,0,0-2.79-2.53c-.55-.36-1-.6-1.78-1a5.19,5.19,0,0,1-3.16-5c0-.86,0-1.47,0-2.17a19.22,19.22,0,0,0-.6-4,11.54,11.54,0,0,0-1.6-3.51,12.36,12.36,0,0,0-2.62-2.89,14.94,14.94,0,0,0-1.69-1.09,15.35,15.35,0,0,1-2-1.32,9.62,9.62,0,0,1-1.77-1.84c-.22-.35-.46-.69-.66-1l-.56-1.05-.91-2a15.18,15.18,0,0,0-1-1.75,12.88,12.88,0,0,0-2.74-2.92,11.13,11.13,0,0,0-7.45-2.44l-.88,0-.21-.85a3.25,3.25,0,0,0-.9-1.43,23.62,23.62,0,0,1-1.62-1.72c-.58-.82-.86-1.3-1.26-1.89-.2-.28-.45-.52-.67-.79a6.56,6.56,0,0,0-.73-.76,25.35,25.35,0,0,0-7.29-4.63,57.6,57.6,0,0,0-8.38-2.9A79.34,79.34,0,0,0,560,227.5a19.55,19.55,0,0,0-16,4.37,23.88,23.88,0,0,0-7.63,14.82l-.08.54-.44.41a9.78,9.78,0,0,0-2.53,3.76,13.55,13.55,0,0,0-.82,4.61,20.05,20.05,0,0,0,.13,2.44l.07.61c0,.17,0,.35.1.51a5.39,5.39,0,0,0,.29,1,6.14,6.14,0,0,0,2.56,3l1.32.79-.49,1.57a22,22,0,0,0,.4,14.22,6.86,6.86,0,0,0,.89,1.84,5.41,5.41,0,0,0,1.28,1.29l1.07.75-.1,1.45a12.67,12.67,0,0,0,0,2.22l0,.31-.07.39a15.46,15.46,0,0,0-.21,3.81,19.89,19.89,0,0,0,.81,3.78,17.42,17.42,0,0,0,1.52,3.55,13.82,13.82,0,0,0,1,1.52c.35.47.82.89,1.22,1.34l.81.91,0,1A21.79,21.79,0,0,0,546,309a18.6,18.6,0,0,0,1.64,4.33,15.84,15.84,0,0,0,2.68,3.6,9.25,9.25,0,0,0,1.57,1.3,10.31,10.31,0,0,0,1.81.93l1.79.7.12,2.13.12,2.49a17.09,17.09,0,0,0,.37,2.38,18.42,18.42,0,0,0,1.61,4.48,18,18,0,0,0,1.19,2,11.87,11.87,0,0,0,1.42,1.59,12.23,12.23,0,0,0,3.73,2.3l1.08.43.56,1.08.41.8.26.5.08.62a29.34,29.34,0,0,0,.79,4.16,21.86,21.86,0,0,0,1.42,3.85c.29.61.61,1.21,1,1.79a10.49,10.49,0,0,0,1.06,1.42,9.57,9.57,0,0,0,2.72,2.15l.86.44.5.89.56,1,.39.68,0,.82a32.85,32.85,0,0,0,.89,6,30.9,30.9,0,0,0,1.74,5.73c.09.2.19.39.29.6l.36.65c.23.44.48.85.72,1.24a13.49,13.49,0,0,0,1.61,2.07,8.57,8.57,0,0,0,1.83,1.46,6.05,6.05,0,0,0,1,.49,7.14,7.14,0,0,0,1.08.32l2.68.59.09,2.75a29,29,0,0,0,2.6,11.25,10.39,10.39,0,0,0,2.85,4,9,9,0,0,0,2,1.22,10.62,10.62,0,0,0,1.11.43l.56.15a3.7,3.7,0,0,1,.48.09l2.9.69.15,2.67a37,37,0,0,0,.7,5.77c.19.94.42,1.88.7,2.79.14.47.29.89.43,1.28s.32.8.51,1.18a10.88,10.88,0,0,0,2.94,3.8,7.05,7.05,0,0,0,4.08,1.55l1.65.16.89,1.36,1.76,2.67.48.73.08.82a21.27,21.27,0,0,0,1,4.75,21,21,0,0,0,.91,2.24,22.33,22.33,0,0,0,1.17,2.17,12.78,12.78,0,0,0,3,3.41,10.71,10.71,0,0,0,1.83,1.17,9.08,9.08,0,0,0,2,.72l1.1.26.64.82,1.51,1.91.57.72.1.79a22.31,22.31,0,0,0,1.31,5.25,15.18,15.18,0,0,0,2.65,4.5,14.11,14.11,0,0,0,4,3.29,16.6,16.6,0,0,0,2.42,1.08c.85.32,1.77.49,2.66.73l1.76.48.24,1.49a21.48,21.48,0,0,0,1.27,4.82,12.61,12.61,0,0,0,6.38,6.71,9.74,9.74,0,0,0,4.55.81l1.63-.1.29,1.46a6.69,6.69,0,0,0,1.61,3.22,5.63,5.63,0,0,0,1.34,1.18,5.88,5.88,0,0,0,1.66.7,8,8,0,0,0,1.91.25h.28l-.21.11a.26.26,0,0,0-.09.09l0,.05c-.06.14.07-.09.09-.39.09-.59.07-1.38.13-2.19a8.47,8.47,0,0,1,.18-1.32,3.44,3.44,0,0,1,.83-1.62l.56-.57.72.3a74.39,74.39,0,0,0,10.34,3.49,35.11,35.11,0,0,0,10.72,1.23,14.44,14.44,0,0,0,9.65-3.91c2.5-2.56,3.6-6.2,4-9.79l0-.21.18-.09a8,8,0,0,0,3.33-3.2,8.92,8.92,0,0,0,.74-2.22,9.8,9.8,0,0,0,.16-2.36"/><path class="cls-4" d="M692.53,475.45s-4.53-58.78,23.59-87.08c.2-7,19.76,103-13.89,102.18-4-3.94-6.72-10.19-9.7-15.1"/><path class="cls-1" d="M692.53,475.45c1.75,2.45,3.3,5,5,7.53a36.14,36.14,0,0,0,5.52,6.79l-.75-.32a11.68,11.68,0,0,0,6-1.73,14.5,14.5,0,0,0,4.43-4.49c2.36-3.64,3.64-8,4.62-12.44A93,93,0,0,0,719,457.2c.3-4.58.4-9.2.33-13.81-.15-9.24-.79-18.5-1.73-27.73q-.72-6.92-1.66-13.81c-.32-2.29-.66-4.58-1.05-6.85-.19-1.13-.39-2.26-.61-3.37-.11-.55-.23-1.1-.35-1.61-.06-.25-.13-.51-.18-.68l0-.08s0,0,.14.28a2.07,2.07,0,0,0,.36.46,2.46,2.46,0,0,0,1,.64,2.73,2.73,0,0,0,3.33-1.25,3.37,3.37,0,0,0,.19-.43l.06-.22v-.1c0-.22,0-.18,0-.19l-.8,1.86a65.77,65.77,0,0,0-12.58,18.19,111.43,111.43,0,0,0-7.5,21.35q-1.38,5.53-2.38,11.18T694,452.41a212.83,212.83,0,0,0-1.43,23m0,0c-.51-3.84-.77-7.71-.91-11.58s-.15-7.76,0-11.64A149.24,149.24,0,0,1,694.13,429,106,106,0,0,1,701,406.43a77.45,77.45,0,0,1,5.65-10.54c1.09-1.68,2.25-3.33,3.5-4.92s2.6-3.09,4-4.54l-.8,1.86a3.44,3.44,0,0,1,.07-.63l0-.15c0-.09,0-.18.07-.28a3.33,3.33,0,0,1,.21-.47,2.77,2.77,0,0,1,3.42-1.3,2.62,2.62,0,0,1,1,.68,3,3,0,0,1,.42.54,4.46,4.46,0,0,1,.32.67l.11.34c.13.39.21.7.29,1,.15.62.28,1.22.4,1.81.25,1.18.47,2.35.68,3.53.42,2.33.79,4.66,1.14,7q1.05,7,1.72,14.05a251.68,251.68,0,0,1,1.27,28.29c-.14,9.45-.82,19-3.23,28.35a38.66,38.66,0,0,1-5.94,13.37,17.37,17.37,0,0,1-5.72,5,14.32,14.32,0,0,1-7.45,1.5l-.48,0-.26-.28a33.33,33.33,0,0,1-5-7.74c-1.37-2.7-2.55-5.46-3.9-8.14"/><path class="cls-4" d="M710.35,503.68c-1.93-13.25-11.9-26.45-19.26-37.13-11.77-17.1-25-33.21-38.64-48.82-30.34-34.71-63.19-68.49-99.3-97.21-19.64-15.61-38.27-19.23-38.27-19.23s14.43,54.6,22.08,70.22c14.5,29.59,39.16,50,66,67.66,24.54,16.1,55.41,29.9,66.94,58.85,2.95,7.42,8.53,24.65,17.19,28,11.6,4.46,23.7-19,23.21-22.33"/><path class="cls-1" d="M710.77,503.62a4.29,4.29,0,0,1-.14,1.43c-.11.44-.24.86-.38,1.28a25.62,25.62,0,0,1-1,2.43,50.28,50.28,0,0,1-2.39,4.61,46.48,46.48,0,0,1-6.15,8.39,25.24,25.24,0,0,1-4,3.48,13.68,13.68,0,0,1-5,2.21,9.5,9.5,0,0,1-5.68-.61,15.46,15.46,0,0,1-4.6-3.19,40.11,40.11,0,0,1-6.41-8.6c-1.76-3.07-3.3-6.22-4.73-9.39s-2.77-6.35-4.21-9.23a60.54,60.54,0,0,0-5.16-8.3,80.64,80.64,0,0,0-13.46-14.25,163,163,0,0,0-16.11-11.81c-5.64-3.67-11.49-7.13-17.36-10.68s-11.84-7.2-17.58-11.08a238.56,238.56,0,0,1-32.69-26.11A145.89,145.89,0,0,1,537.77,381q-1.29-2.31-2.49-4.67c-.78-1.59-1.56-3.13-2.3-4.84-1.42-3.33-2.54-6.62-3.64-9.92-2.19-6.6-4.07-13.23-5.88-19.87-3.64-13.29-6.91-26.62-10.2-40l-.67-2.72,2.61.64a75.53,75.53,0,0,1,8.78,2.77c2.84,1.09,5.63,2.27,8.35,3.6A109.78,109.78,0,0,1,548,315.13c1.23.87,2.49,1.71,3.68,2.65s2.42,1.81,3.58,2.76c2.32,1.88,4.71,3.7,7,5.61q7,5.61,13.89,11.4A650.77,650.77,0,0,1,629.1,386.3q12.46,13,24.08,26.72t22.24,28.33q5.28,7.31,10.31,14.78c3.33,5,6.56,10.05,9.8,15.08s6.49,10.09,9.24,15.44a68.26,68.26,0,0,1,3.7,8.23,43.78,43.78,0,0,1,2.3,8.74m-.85.12a41.64,41.64,0,0,0-2.3-8.54,66.22,66.22,0,0,0-3.81-8,138.22,138.22,0,0,0-9.9-14.84c-3.6-4.79-7.11-9.61-10.87-14.23s-7.56-9.21-11.46-13.7c-7.79-9-15.86-17.75-23.89-26.55L623.6,391.47c-16.12-17.51-32.25-35.08-49.73-51.31q-6.57-6-13.37-11.87c-4.57-3.82-9.11-7.71-14-11a103.31,103.31,0,0,0-15.38-8.73c-2.69-1.21-5.44-2.28-8.21-3.25a63,63,0,0,0-8.39-2.34l2-2.07c3.8,13.15,8,26.22,12.31,39.18,2.19,6.47,4.47,12.91,6.86,19.25,1.21,3.15,2.49,6.28,3.85,9.23.67,1.41,1.48,2.91,2.26,4.37s1.63,2.91,2.49,4.33A140.77,140.77,0,0,0,569.62,408c9.78,9.14,20.67,17.13,31.92,24.68s23.11,14.22,34.64,22.15a138.45,138.45,0,0,1,16.62,13.06,82.57,82.57,0,0,1,13.73,16.49,66.77,66.77,0,0,1,4.89,9.61c1.39,3.38,2.31,6.68,3.4,9.88a98.33,98.33,0,0,0,3.61,9.41,34.74,34.74,0,0,0,5.05,8.4,12.78,12.78,0,0,0,3.57,3,7.29,7.29,0,0,0,4.34.83,11.52,11.52,0,0,0,4.43-1.63,21.62,21.62,0,0,0,3.92-3.05,44.09,44.09,0,0,0,8.71-12.41c.35-.76.68-1.54,1-2.33.14-.4.26-.79.36-1.19a3.55,3.55,0,0,0,.14-1.11"/><path class="cls-1" d="M548.53,281.61a20.15,20.15,0,0,0,4.85-1.35,20.58,20.58,0,0,0,3.1-1.63,21.67,21.67,0,0,0,2.82-2.14,23.8,23.8,0,0,0,3.4-3.76,6.69,6.69,0,0,1,1.26,6.12,9,9,0,0,1-10.49,6.63,6.61,6.61,0,0,1-4.94-3.87"/><path class="cls-1" d="M589.66,313a20.52,20.52,0,0,0-4.84,1.35,21.72,21.72,0,0,0-3.11,1.62,23.22,23.22,0,0,0-6.21,5.91,6.7,6.7,0,0,1-1.27-6.12,9,9,0,0,1,10.5-6.62,6.54,6.54,0,0,1,4.93,3.86"/><path class="cls-1" d="M600.82,329.2a20.52,20.52,0,0,0,4.84-1.35,21,21,0,0,0,3.1-1.62,22.77,22.77,0,0,0,2.82-2.15,23.77,23.77,0,0,0,3.4-3.76,6.7,6.7,0,0,1,1.27,6.12,9,9,0,0,1-3.91,5.39,8.88,8.88,0,0,1-6.59,1.23,6.54,6.54,0,0,1-4.93-3.86"/><path class="cls-1" d="M566,251a20,20,0,0,0-4.84,1.35,20.74,20.74,0,0,0-3.11,1.62,24.36,24.36,0,0,0-2.82,2.15,23.82,23.82,0,0,0-3.39,3.76,6.7,6.7,0,0,1-1.27-6.12,9,9,0,0,1,10.5-6.62A6.54,6.54,0,0,1,566,251"/><path class="cls-1" d="M626.71,351.91a20.12,20.12,0,0,0-8,3,23.11,23.11,0,0,0-2.82,2.14,24.45,24.45,0,0,0-3.4,3.77,6.75,6.75,0,0,1-1.27-6.13,9,9,0,0,1,10.5-6.62,6.59,6.59,0,0,1,4.94,3.86"/><path class="cls-1" d="M636.44,368.27a20,20,0,0,0,7.94-3,22.61,22.61,0,0,0,2.82-2.14,23.94,23.94,0,0,0,3.4-3.77,6.72,6.72,0,0,1,1.27,6.13,9,9,0,0,1-10.5,6.62,6.57,6.57,0,0,1-4.93-3.87"/><path class="cls-1" d="M644.29,397.33a20.68,20.68,0,0,0,4.85-1.34,20.1,20.1,0,0,0,3.1-1.63,21.82,21.82,0,0,0,2.82-2.15,23.8,23.8,0,0,0,3.4-3.76,6.75,6.75,0,0,1,1.27,6.13,9,9,0,0,1-3.91,5.39,8.93,8.93,0,0,1-6.59,1.23,6.61,6.61,0,0,1-4.94-3.87"/><path class="cls-1" d="M683,414.44a20.58,20.58,0,0,0-4.84,1.34,21.16,21.16,0,0,0-3.11,1.63,24.36,24.36,0,0,0-2.82,2.15,23.82,23.82,0,0,0-3.39,3.76,6.69,6.69,0,0,1-1.27-6.13,9,9,0,0,1,10.5-6.62,6.57,6.57,0,0,1,4.93,3.87"/><path class="cls-1" d="M582,289a20.62,20.62,0,0,0,4.85-1.35,21,21,0,0,0,3.1-1.62,24.36,24.36,0,0,0,2.82-2.15,24.78,24.78,0,0,0,3.4-3.76,6.73,6.73,0,0,1,1.27,6.12,9,9,0,0,1-3.92,5.4,8.89,8.89,0,0,1-6.58,1.22A6.57,6.57,0,0,1,582,289"/><path class="cls-4" d="M651.25,466c-2.09-5.17-22.64-11.36-27.38-13.87C597.67,438.24,582.36,435,548.31,435c0,0-1.87-17.08,15.84-23.39,51.16-18.23,79.44,35.46,87.1,54.38"/><path class="cls-1" d="M640.31,871.06c1.32,4,2.38,7.81,3.67,11.49A87.48,87.48,0,0,0,648.36,893a44.93,44.93,0,0,0,13.09,16.1c5.44,4.15,12.06,7,19.26,9s14.94,3.3,23.11,4.83a50.36,50.36,0,0,1-12,3.4,56.42,56.42,0,0,1-12.62.61,50.08,50.08,0,0,1-12.77-2.51,42.14,42.14,0,0,1-11.88-6.28,39.43,39.43,0,0,1-9.26-9.94A41.2,41.2,0,0,1,640,896.1a48.47,48.47,0,0,1-1.51-12.7,49.17,49.17,0,0,1,1.84-12.34"/><path class="cls-1" d="M325.72,335.55a3.42,3.42,0,1,1-3.41-3.71,3.57,3.57,0,0,1,3.41,3.71"/><path class="cls-1" d="M932.56,608.55a3.42,3.42,0,1,1-3.4-3.72,3.56,3.56,0,0,1,3.4,3.72"/><path class="cls-1" d="M330.54,388.17a3.42,3.42,0,1,1-3.41-3.72,3.56,3.56,0,0,1,3.41,3.72"/><path class="cls-2" d="M959.83,401a68.88,68.88,0,0,1,8.52,63.54c-7.74,21.55-22.69,45.3-45.32,48.83-8.22,1.29-24.23.14-32.48-1-26.47-3.59-74.09-22-85-50.19-7.15-18.5-1.58-32.74,4.05-47.05,11.8-29.94,56.69-55.95,90-48.75,21.94,4.75,47.14,16,60.24,34.61"/><path class="cls-4" d="M927.29,359.94h-.06c0-.08-.07-.15-.1-.22Z"/><path class="cls-1" d="M939.79,401.48l-19.45,3.73-11.22-16.38a1.07,1.07,0,0,0-1.93.8l3.72,19.54-16.32,11.29a1.06,1.06,0,0,0,.81,1.92l19.45-3.73L926.07,435a1.07,1.07,0,0,0,1.93-.8l-3.72-19.54,16.31-11.29a1.06,1.06,0,0,0-.8-1.92"/><path class="cls-1" d="M848.94,480.36a33.31,33.31,0,0,1-18.56-9c-1.28-1.23-2.47-2.59-3.66-3.94s-2.11-2.93-3.11-4.44-1.7-3.19-2.47-4.83-1.29-3.38-1.81-5.11a42.78,42.78,0,0,1-.55-21.22,37.17,37.17,0,0,1,9.68-18.1,156,156,0,0,0-.76,19,73.53,73.53,0,0,0,2.59,17.17,60,60,0,0,0,6.93,15.69,95.6,95.6,0,0,0,11.72,14.75"/><path class="cls-1" d="M915.81,494.86a3.42,3.42,0,1,1-1.35,4.85,3.56,3.56,0,0,1,1.35-4.85"/><path class="cls-1" d="M929.52,483.9a3.41,3.41,0,1,1-1.35,4.85,3.57,3.57,0,0,1,1.35-4.85"/><path class="cls-1" d="M892.57,484.32a3.42,3.42,0,1,1-1.35,4.86,3.59,3.59,0,0,1,1.35-4.86"/><path class="cls-1" d="M910.4,474.3a3.42,3.42,0,1,1-1.35,4.85,3.56,3.56,0,0,1,1.35-4.85"/><path class="cls-2" d="M440.91,616.55a1.81,1.81,0,0,1-1.62-1,10.35,10.35,0,0,0-5.25-4.95l-.38.12a3.44,3.44,0,0,1-.91.12c-2.53,0-4.79-2.72-7.18-5.61-.59-.7-1.17-1.41-1.75-2.07-2.21-2.47-3.87-4.13-5.08-5.33-2.5-2.48-3.43-3.42-3.28-6,.05-.74-2-2.76-3.66-4.38-4.07-4-9.61-9.45-9.19-16.08a51.27,51.27,0,0,1-10.93-15.68c0,.3,0,.6-.07.9-.29,3.92-.7,9.28-2.59,12.12a36,36,0,0,0-2.57,6.3c-2,5.67-3.82,11-6.91,11l-.28,0-.31,0c-1.62,1.32-2.73,3.8-3.16,7a1.86,1.86,0,0,1-1.83,1.62,1.76,1.76,0,0,1-1.21-.48,8.76,8.76,0,0,1-2.79-7.21c.27-3.45,2.34-6.67,5.85-9.12a53.42,53.42,0,0,0-.6-7.75c-.47-3.93-.95-8-.64-11.07a75.84,75.84,0,0,0-.16-10.6c-.34-5.95-.69-12.1.43-16.21.59-2.19,1.18-3.87,1.71-5.35,1.08-3,1.67-4.7,1-7.25-1-3.67-18.72-27.9-30.8-39.54-5.23-5-18.84-13.65-32-22-20.78-13.15-33.46-21.43-34.51-25.43-.77-2.95.78-21.19,6.57-28.67,1.75-2.26,3.76-3.41,6-3.41a6.85,6.85,0,0,1,1.42.15c14.37,3.08,36.91,26.91,74.26,66.41,27,28.52,31.13,30.35,46.63,37.17,3.51,1.55,7.5,3.3,12.47,5.67,11.9,5.68,20.21,10.43,26.27,13.89,7.59,4.34,11.77,6.72,15.42,6.72h.31l7.69.27,3,.1a6,6,0,0,1,4.74-2.1c4.76,0,10.48,4.34,11.78,8.93a1.82,1.82,0,0,1-.3,1.61,1.87,1.87,0,0,1-1.47.74,1.77,1.77,0,0,1-1.1-.38,6.56,6.56,0,0,0-4.11-1.39,4.52,4.52,0,0,0-.52,0,6.39,6.39,0,0,1-.76,4.11c-1.21,2.13-3.71,3.72-7.23,4.59a29.14,29.14,0,0,1-7,.9c-6.47,0-10.13-2.55-11.47-3.74a8.23,8.23,0,0,1-3.9.9c-3.62,0-7.72-1.83-12.21-5.43a17.37,17.37,0,0,1-4.33.6,11.36,11.36,0,0,1-2.95-.36,13,13,0,0,1-2.27-.85,5.55,5.55,0,0,0-.58-.26,5.6,5.6,0,0,0-.25.83.56.56,0,0,1,0,.12l0,.18h0a2.35,2.35,0,0,0,.24.83c2.87,6.93,25.54,33.1,33.1,38.27,5.09.64,11.27,5.57,11.39,10.61a1.86,1.86,0,0,1-1.83,1.92,1.86,1.86,0,0,1-1.06-.34,15.45,15.45,0,0,0-5.7-2.5,10.43,10.43,0,0,1-7.13,2.3c-.49,0-1,0-1.5-.07-.88,0-5.07-3-5.1-3.07l0,0c-2.76-2.31-13.74-14.72-13.85-14.85a13.92,13.92,0,0,0-1.87-1.21,48.05,48.05,0,0,1-13.14-10.85l-2.48-3.07c-3.95-4.9-4.14-5.09-5.51-5.35l-.42,0a9.29,9.29,0,0,0-4,1.39l-.49.31c0,.24.12.59.24,1.1,1.75,7.46,12.5,37.56,18.51,44.81a12.23,12.23,0,0,1,1.64,2.56c4.22,2.17,6.89,8.45,5.33,12.71a1.82,1.82,0,0,1-1.72,1.19"/><path class="cls-2" d="M292.78,399.58c-2.54,0-4.8,1.28-6.75,3.79-6.07,7.85-7.55,26.35-6.73,29.49,1.1,4.2,12,11.49,34.92,26,13.12,8.31,26.69,16.9,31.85,21.87,12.66,12.18,29.68,35.9,30.54,39.09.62,2.27.09,3.75-1,6.69-.5,1.43-1.13,3.2-1.73,5.43-1.16,4.25-.81,10.48-.46,16.5a78.8,78.8,0,0,1,.17,10.45c-.33,3.18.16,7.3.64,11.28a62.73,62.73,0,0,1,.61,7.14c-3.51,2.58-5.58,5.94-5.87,9.55a9.7,9.7,0,0,0,3.1,8,2.73,2.73,0,0,0,1.85.73,2.8,2.8,0,0,0,2.77-2.44c.38-2.79,1.26-5,2.52-6.17h.29c3.76,0,5.73-5.66,7.81-11.65a36.4,36.4,0,0,1,2.46-6.1c1.61-2.42,2.21-6.39,2.54-9.94a52.62,52.62,0,0,0,9.29,12.47c-.19,6.84,5.38,12.32,9.5,16.36,1.31,1.3,3.11,3.07,3.37,3.76-.15,3,1,4.12,3.56,6.65,1.2,1.19,2.84,2.83,5,5.29.56.64,1.16,1.35,1.73,2,2.53,3.06,4.93,5.95,7.91,5.95a3.92,3.92,0,0,0,1.18-.17H434a9.48,9.48,0,0,1,4.47,4.38,2.78,2.78,0,0,0,5.07-.32c1.71-4.65-1-11.2-5.49-13.72a13.39,13.39,0,0,0-1.64-2.47c-5.81-7-16.63-37.24-18.32-44.43l-.1-.42a8.14,8.14,0,0,1,3.39-1.21l.17,0h.14c1,.19,1.13.32,4.91,5l2.48,3.07a48.74,48.74,0,0,0,13.38,11.06c.67.41,1.43.86,1.67,1,.75.94,4.62,5.18,7.12,7.88,5.27,5.71,6.57,7.09,7.27,7.46,1.22.9,3.91,2.74,5.06,2.91.55.05,1.1.08,1.64.08a11.59,11.59,0,0,0,7.37-2.22,14.55,14.55,0,0,1,4.9,2.24,2.79,2.79,0,0,0,1.62.52,2.84,2.84,0,0,0,2-.84,2.79,2.79,0,0,0,.79-2c-.14-5.56-6.54-10.7-12-11.51-7.65-5.38-29.77-30.92-32.58-37.71l-.1-.25a12.84,12.84,0,0,0,1.91.68,12.52,12.52,0,0,0,3.2.39,18.1,18.1,0,0,0,4.11-.51c4.51,3.54,8.69,5.34,12.43,5.34a9.28,9.28,0,0,0,3.77-.74c1.76,1.39,5.51,3.59,11.6,3.59a30.41,30.41,0,0,0,7.24-.93c3.83-1,6.47-2.66,7.83-5.05a7.38,7.38,0,0,0,1-3.63,5.38,5.38,0,0,1,3,1.17,2.75,2.75,0,0,0,1.7.58,2.83,2.83,0,0,0,2.22-1.11,2.79,2.79,0,0,0,.46-2.45c-1.43-5-7.48-9.62-12.7-9.62a7,7,0,0,0-5.15,2.09l-2.86-.1-7.37-.26h-.34c-3.4,0-7.5-2.35-14.95-6.61-6.08-3.47-14.4-8.22-26.33-13.91-5-2.39-9-4.14-12.5-5.69-15.36-6.76-19.49-8.58-46.32-37-40.59-42.91-60.72-63.67-74.75-66.68a7.43,7.43,0,0,0-1.61-.18m0,1.9a5.69,5.69,0,0,1,1.21.14c13.82,3,35.64,25.81,73.77,66.13,33.12,35,32.1,30,59.38,43.05,26.83,12.81,35.1,20.71,42.1,20.71h.34l11.1.39a5,5,0,0,1,4.28-2.12c4.3,0,9.67,4,10.87,8.24a.9.9,0,0,1-.85,1.14.91.91,0,0,1-.53-.18,7.46,7.46,0,0,0-4.69-1.59,9.78,9.78,0,0,0-1.67.15c1,3.24-.56,7-7.07,8.6a28.3,28.3,0,0,1-6.79.88c-7.91,0-11.35-4-11.35-4a6.29,6.29,0,0,1-4,1.16c-2.64,0-6.62-1.11-12-5.52a16.65,16.65,0,0,1-4.55.69,10.93,10.93,0,0,1-2.72-.33c-1.7-.45-2.63-1.19-3.24-1.19-.45,0-.73.4-1,1.61,0,.07,0,.17-.07.26a2.6,2.6,0,0,0,.29,1.46c3,7.27,26.05,33.82,33.64,38.81,5,.5,10.66,5.3,10.77,9.73a.9.9,0,0,1-.88.94.87.87,0,0,1-.5-.16,16.65,16.65,0,0,0-6.6-2.77,1.86,1.86,0,0,1-.23.26,9.51,9.51,0,0,1-6.56,2.13c-.48,0-1,0-1.48-.07h0a43,43,0,0,1-4.39-2.74c-.34,0-12.92-13.74-13.76-14.85s-8.61-4.2-15-12.08-6.49-8.36-8.59-8.76l-.5-.05h-.07a10.1,10.1,0,0,0-4.45,1.53,4.77,4.77,0,0,0-1,.7,6,6,0,0,0,.29,1.74c1.78,7.59,12.62,37.86,18.7,45.2a10.13,10.13,0,0,1,1.65,2.65c4.16,1.88,6.54,7.93,5.16,11.68a.89.89,0,0,1-1.6.1,11.32,11.32,0,0,0-6.07-5.54,5,5,0,0,1-.65.22,2.5,2.5,0,0,1-.66.09c-2.65,0-5.45-4.24-8.23-7.36-6.71-7.53-8.3-7.4-8.1-10.67S402.54,580.94,403.6,571c-4.85-4.53-9.61-11.5-11.59-17.1-.31-.87-.53-1.25-.7-1.25-.93,0-.26,11.3-3.08,15.53-2.41,3.62-4.94,16.9-8.69,16.9h-.17a3.06,3.06,0,0,1-.63-.13c-2.05,1.41-3.39,4.2-3.89,8a.91.91,0,0,1-.89.79.82.82,0,0,1-.57-.23c-3.84-3.5-3.67-10.47,3.34-15.1.41-4.26-1.78-13.71-1.21-19.25.69-6.85-1.59-19.93.23-26.65s3.82-8.94,2.7-13.11-19.22-28.57-31.06-40-64.39-39.87-66.25-47c-.84-3.22,1.65-30.9,11.64-30.9"/><path class="cls-1" d="M311.72,467.74a14.81,14.81,0,0,1-4.78-8.77,21.34,21.34,0,0,1,.68-10.16,19.69,19.69,0,0,1,5.45-8.76,13.19,13.19,0,0,1,4.6-2.74,7.27,7.27,0,0,1,5.2.09,11,11,0,0,0-3.51,2.71,19.87,19.87,0,0,0-2.29,3.3A40.11,40.11,0,0,0,314,450.8a50.74,50.74,0,0,0-1.82,8,52,52,0,0,0-.42,9"/><path class="cls-1" d="M346.39,453.5c-1.45,1.32-2.69,2.23-3.7,3.13a30,30,0,0,0-2.59,2.56c-.8.86-1.62,1.81-2.56,2.92a29.54,29.54,0,0,1-3.5,3.57,9.24,9.24,0,0,1-.6-5.38,10,10,0,0,1,2.47-5,9.13,9.13,0,0,1,5-2.81,7.73,7.73,0,0,1,5.43,1"/><path class="cls-1" d="M369.88,472.89a18.68,18.68,0,0,0-4.46,2.19,18.1,18.1,0,0,0-2.93,2.47A21.06,21.06,0,0,0,360,480.6a49.65,49.65,0,0,0-2.51,4.47,7.57,7.57,0,0,1-1.78-5.73,9.36,9.36,0,0,1,2.65-5.76,9.26,9.26,0,0,1,5.78-2.79,6.64,6.64,0,0,1,5.7,2.1"/><path class="cls-1" d="M381.79,504.7a16.45,16.45,0,0,1-.8-2.3,18.72,18.72,0,0,1-.33-2.43c0-.42,0-.83,0-1.26,0-.22,0-.43,0-.65l.12-.64c.09-.44.19-.87.31-1.3a12.71,12.71,0,0,1,.52-1.28,11.26,11.26,0,0,1,1.52-2.42c.32-.34.66-.69,1-1l.54-.49.57-.4c.39-.28.79-.53,1.2-.77s.82-.39,1.24-.58a14.56,14.56,0,0,1,2.52-.83,22.48,22.48,0,0,1,9.66,0c.76.17,1.52.35,2.27.56s1.47.49,2.19.77a21.6,21.6,0,0,1,4.21,2.18,55.28,55.28,0,0,1-8.89,1.72c-2.81.38-5.52.68-7.88,1.25a11.41,11.41,0,0,0-1.68.47c-.27.09-.55.16-.81.26a5.74,5.74,0,0,1-.71.33l-.37.16-.32.2a7.51,7.51,0,0,1-.68.39c-.2.17-.39.33-.61.5s-.23.15-.33.24l-.28.3c-.18.21-.4.4-.6.61s-.35.49-.55.74l-.3.37-.24.43-.54.86c-.34.61-.63,1.27-1,1.92a22.73,22.73,0,0,1-1,2.12"/><path class="cls-1" d="M299,424.41a6,6,0,0,1,0-4.7,11.77,11.77,0,0,1,2.64-4,17.53,17.53,0,0,1,8-4.53,16.59,16.59,0,0,1,9.31.21,11.68,11.68,0,0,1,4.14,2.35,8.07,8.07,0,0,1,2.5,3.86,19,19,0,0,0-7.52-1.06,34.82,34.82,0,0,0-6.78,1.08,41,41,0,0,0-6.58,2.27,20.58,20.58,0,0,0-3.08,1.69,8.24,8.24,0,0,0-2.66,2.84"/><path class="cls-3" d="M344.66,521.68a67.92,67.92,0,0,0-20.71-22c-8.27-5.41-17.59-9.93-22.8-19.22-1.74-3.13-2.23-6.67-3.59-9.93-2.7-6.49-8.32-10.25-15.42-8.6-10.24,2.38-1.45,15.39-3.55,21.93-1.28,4-4.23,7.23-7.95,10.11a66.69,66.69,0,0,1-.13,8,54.65,54.65,0,0,1-4.15,17.44c-2.31,5.6-5.54,10.68-8.39,15.55-1.42,2.44-2.73,4.87-3.85,7.33a49.52,49.52,0,0,0-2.7,7.54,54.49,54.49,0,0,0-1.64,15.91,93.91,93.91,0,0,0,2,16.26c1.12,5.45,2.59,10.91,4.12,16.44s3.18,11.1,4.45,16.88a114.38,114.38,0,0,1-9.31-14.95,96.69,96.69,0,0,1-6.83-16.43,68.7,68.7,0,0,1-3-18,54.43,54.43,0,0,1,.55-9.27c.22-1.54.51-3.06.88-4.58s.74-3,1.2-4.5a60.35,60.35,0,0,1,8.31-16.32c1.65-2.44,3.36-4.77,5-7.09a82.8,82.8,0,0,0,4.44-7.09,58.86,58.86,0,0,0,5.84-15.61c.45-2,.82-4,1.12-6-7.46,5.14-17.07,9-22.72,13.24-10.41,7.81-19.69,18.78-22.37,31.44-2.83,13.35-.17,31.49,4.24,44.41,5.17,15.15,14.3,27.15,25.66,34.68-.77.54-1.54,1.07-2.33,1.58l-.39.25a7.75,7.75,0,0,1-2.6,1.31A2.59,2.59,0,0,0,246,624a3.09,3.09,0,0,0,.55,3,2.84,2.84,0,0,0,2.75,1c2.56-.42,4.92-2.17,7-3.71.62-.46,1.22-.91,1.8-1.3l.83-.54c.95.48,1.92.93,2.9,1.35-.18.47-.38.95-.54,1.41s-.44,1.14-.65,1.7c-1.47,3.74-2.67,7.09-3.67,10.23-.1.29-.2.6-.29.91a2.74,2.74,0,0,0,1.93,3.49,2.84,2.84,0,0,0,3.62-1.89l.19-.6a38.13,38.13,0,0,1,3.2-6.61c.65-1.14,1.3-2.29,1.89-3.47a142.34,142.34,0,0,0,1,14.55,3.08,3.08,0,0,0,3.44,2.7c.14,0,.27,0,.39-.06a2.49,2.49,0,0,0,1.93-2.8,35.62,35.62,0,0,1,.3-7.19c.12-1.15.25-2.34.32-3.49l0-.73c.09-1.42.18-2.91.2-4.42.76.1,1.51.2,2.27.27.88,1.62,1.69,3.33,2.48,5,1,2,2,4.12,3.09,6.11a2.84,2.84,0,0,0,4,1,3,3,0,0,0,1.33-1.55,2.71,2.71,0,0,0-.24-2.28c-1.06-1.86-2-3.9-3-6-.32-.7-.65-1.39-1-2.08a54.82,54.82,0,0,0,15.59-2.89C348.29,608.64,366.16,557.6,344.66,521.68Zm-45.14,62.17c-4.75,8.88-10.87,16.6-18.4,22,.7-2.52,1.5-4.87,2.33-7.15.2-.58.42-1.13.61-1.71l.55-1.75c.36-1.15.75-2.28,1.12-3.42.83-2.19,1.45-4.5,2.14-6.72.33-1.12.69-2.22,1-3.31l.88-3.36a181.2,181.2,0,0,0,5.3-26.52,191.82,191.82,0,0,0,1.25-27.27c0-1.16,0-2.35-.07-3.51s-.12-2.35-.16-3.54l-.06-1.79c0-.59-.09-1.18-.12-1.78l-.23-3.6c0-.61-.05-1.23-.1-1.83s-.13-1.2-.17-1.82c-.09-1.22-.2-2.45-.27-3.7-.2-2.49-.47-5-.55-7.62a59.78,59.78,0,0,1,4.11,6.07c.61,1.07,1.18,2.16,1.76,3.26s1.14,2.23,1.63,3.38a73.67,73.67,0,0,1,2.73,7.09c.41,1.22.79,2.44,1.16,3.68.2.61.36,1.24.51,1.87l.44,1.89a91.29,91.29,0,0,1,1.68,31.49A85.27,85.27,0,0,1,299.52,583.85Zm41.29-17.11a67.51,67.51,0,0,1-13.06,27,69.25,69.25,0,0,1-22.6,18.62,143.74,143.74,0,0,0,17.1-22.44,85.29,85.29,0,0,0,10.22-25A77.37,77.37,0,0,0,333.65,538c-1.12-9.08-3.86-18-7.35-27.11a62.36,62.36,0,0,1,13.95,25.8A63.08,63.08,0,0,1,340.81,566.74Z"/><path class="cls-1" d="M824.16,676.62a149.31,149.31,0,0,0-5.69-19.09,1.73,1.73,0,0,0-1.06-1,1.78,1.78,0,0,0-1.49.17,150.57,150.57,0,0,0-16.15,11.67c-8.18,6.86-13.27,13.11-15.12,18.55a21.22,21.22,0,0,0,40.17,13.68c1.85-5.46,1.63-13.51-.66-23.94"/><path class="cls-4" d="M796.91,701.81c1.69-.2,3.15-.27,4.5-.44a18.56,18.56,0,0,0,3.55-.74,10,10,0,0,0,2.54-1.22,13.52,13.52,0,0,0,2-1.69,29.11,29.11,0,0,0,3.87-5.32c1.34-2.17,2.59-4.6,4.4-7.4a15,15,0,0,1,2,9.31,15.45,15.45,0,0,1-4.19,9.37,12.78,12.78,0,0,1-4.88,3.15,11.39,11.39,0,0,1-5.69.5,11.72,11.72,0,0,1-8.14-5.52"/><path class="cls-2" d="M735.81,567.85s3.94-9.27,9.49-21.49l.85-1.86c.1-.22.2-.43.29-.65,1.14-2.48,2.33-5.06,3.56-7.69,8.21-17.55,15.26-41.47,24.45-44.71,18.58-6.56,26.84-25.84,17-34-11.72-9.73-25.15-3-25.15-3s-15.74-25.68-27.44-14.68c-15.55,14.62-1.58,32.27-1.9,40.65,0,.54-.07,1.11-.14,1.71l-.06.49c-.06.48-.13,1-.22,1.48,0,.15,0,.3-.07.46-.12.67-.26,1.35-.42,2.08l0,.14c-.15.68-.32,1.37-.51,2.09,0,.17-.09.35-.13.52-.18.69-.37,1.38-.58,2.09,0,.1,0,.2-.08.3-.25.84-.52,1.71-.8,2.6a.75.75,0,0,1,0,.16c-.26.83-.54,1.67-.83,2.52,0,.14-.09.28-.14.43-.63,1.86-1.33,3.78-2.07,5.75,0,0,0,.08,0,.13-.36.95-.73,1.92-1.11,2.9l-.1.24c-.8,2.07-1.65,4.18-2.53,6.32-8.94,21.62-20.89,45.11-22.4,49.47-2.45,7,26.67,16,31.19,5.6"/><path class="cls-2" d="M685.27,722c-8.09,6.34-17.92,9.56-30,10.61-25.09,2.18-65.55-18.09-74.52-47.79-8.32-27.55-7.8-61.78,48.95-82.43C672,587,696.09,565.53,703.3,545.17c4.67-13.18,29.26-6.28,38.36-1.62,5,2.55,13.21,5.81,10.49,11.66s-14.37,43.68-20.39,66C726.28,641.67,719.63,658,712.41,678c-6.19,17.16-14.59,34.14-27.14,44"/><path class="cls-1" d="M643,691.26a2.76,2.76,0,0,0-3.83-1.11,3,3,0,0,0-1.08,4,2.78,2.78,0,0,0,3.83,1.11,3,3,0,0,0,1.08-4"/><path class="cls-1" d="M640.59,690.84a1.65,1.65,0,0,0-.85.23,1.89,1.89,0,0,0-.68,2.52,1.78,1.78,0,0,0,1.07.87,1.69,1.69,0,0,0,1.3-.17,1.89,1.89,0,0,0,.68-2.53,1.72,1.72,0,0,0-1.52-.92m0,5.8a4.07,4.07,0,0,1-1-.14,3.87,3.87,0,0,1-2.35-1.9,4,4,0,0,1,1.48-5.37,3.79,3.79,0,0,1,2.94-.37,3.85,3.85,0,0,1,2.36,1.9,4,4,0,0,1-1.49,5.36,3.7,3.7,0,0,1-1.9.52"/><path class="cls-1" d="M716.81,595a2.76,2.76,0,0,0-3.83-1.11,3,3,0,0,0-1.09,4,2.79,2.79,0,0,0,3.84,1.11,3,3,0,0,0,1.08-3.95"/><path class="cls-1" d="M714.36,594.55a1.69,1.69,0,0,0-.85.23,1.89,1.89,0,0,0-.68,2.53,1.7,1.7,0,0,0,2.37.7,1.9,1.9,0,0,0,.68-2.53,1.78,1.78,0,0,0-1.52-.93m0,5.81a3.68,3.68,0,0,1-1-.15,3.84,3.84,0,0,1-2.36-1.89,4,4,0,0,1,1.49-5.37,3.82,3.82,0,0,1,5.29,1.53,4,4,0,0,1-1.48,5.36,3.83,3.83,0,0,1-1.9.52"/><path class="cls-1" d="M684.77,678.68a2.77,2.77,0,0,0-3.83-1.12,3,3,0,0,0-1.08,4,2.76,2.76,0,0,0,3.83,1.11,2.94,2.94,0,0,0,1.08-3.94"/><path class="cls-1" d="M682.32,678.25a1.72,1.72,0,0,0-.85.23,1.89,1.89,0,0,0-.68,2.53,1.73,1.73,0,0,0,1.07.86,1.65,1.65,0,0,0,1.3-.16,1.89,1.89,0,0,0,.68-2.53,1.7,1.7,0,0,0-1.07-.86,1.41,1.41,0,0,0-.45-.07m0,5.81a3.68,3.68,0,0,1-1-.15,3.85,3.85,0,0,1-2.36-1.9,4,4,0,0,1,1.49-5.36,3.83,3.83,0,0,1,5.29,1.52,4,4,0,0,1-1.48,5.37,3.8,3.8,0,0,1-1.9.52"/><path class="cls-1" d="M704.54,640.27a2.76,2.76,0,0,0-3.83-1.11,3,3,0,0,0-1.09,4,2.79,2.79,0,0,0,3.84,1.11,3,3,0,0,0,1.08-4"/><path class="cls-1" d="M702.08,639.85a1.59,1.59,0,0,0-.84.23,1.88,1.88,0,0,0-.68,2.52,1.71,1.71,0,0,0,1.06.86,1.67,1.67,0,0,0,1.31-.16,1.9,1.9,0,0,0,.68-2.53,1.79,1.79,0,0,0-1.07-.86,1.76,1.76,0,0,0-.46-.06m0,5.8a4.06,4.06,0,0,1-1-.14,3.89,3.89,0,0,1-2.36-1.9,4,4,0,0,1,1.49-5.37,3.78,3.78,0,0,1,2.94-.37,3.85,3.85,0,0,1,2.35,1.89h0a4,4,0,0,1-1.49,5.37,3.79,3.79,0,0,1-1.9.51"/><path class="cls-1" d="M691,606.08a2.76,2.76,0,0,0-3.83-1.11,2.94,2.94,0,0,0-1.08,3.94,2.76,2.76,0,0,0,3.83,1.11,2.94,2.94,0,0,0,1.08-3.94"/><path class="cls-1" d="M688.56,605.65a1.75,1.75,0,0,0-.85.23,1.91,1.91,0,0,0-.68,2.53,1.76,1.76,0,0,0,1.07.86,1.65,1.65,0,0,0,1.3-.16,1.89,1.89,0,0,0,.68-2.53,1.74,1.74,0,0,0-1.06-.86,1.47,1.47,0,0,0-.46-.07m0,5.81a3.74,3.74,0,0,1-1-.15,3.85,3.85,0,0,1-2.35-1.89,4,4,0,0,1,1.49-5.37,3.72,3.72,0,0,1,2.93-.37,3.84,3.84,0,0,1,2.36,1.89,4,4,0,0,1-1.49,5.37,3.8,3.8,0,0,1-1.9.52"/><path class="cls-1" d="M678.74,651.37a2.77,2.77,0,0,0-3.83-1.12,3,3,0,0,0-1.08,4,2.78,2.78,0,0,0,3.83,1.11,3,3,0,0,0,1.08-4"/><path class="cls-1" d="M676.29,650.94a1.72,1.72,0,0,0-.85.23,1.9,1.9,0,0,0-.68,2.53,1.78,1.78,0,0,0,1.07.87,1.74,1.74,0,0,0,1.3-.17,1.89,1.89,0,0,0,.68-2.53,1.74,1.74,0,0,0-1.06-.86,1.9,1.9,0,0,0-.46-.07m0,5.81a3.74,3.74,0,0,1-1-.15,3.82,3.82,0,0,1-2.35-1.89,4,4,0,0,1,1.48-5.37,3.79,3.79,0,0,1,2.94-.37,3.84,3.84,0,0,1,2.36,1.89h0a4,4,0,0,1-1.49,5.36,3.7,3.7,0,0,1-1.9.52"/><path class="cls-1" d="M708,537.22a15.46,15.46,0,0,1,3.08-2.38,27.35,27.35,0,0,1,3.49-1.69,39.16,39.16,0,0,1,7.45-2.13,47.93,47.93,0,0,1,7.8-.73,44.23,44.23,0,0,1,8,.76,47.53,47.53,0,0,1,8.16,2.14,17.2,17.2,0,0,1,7.15,5.19c3.84,4.74,5.32,11.32,3,16.7a.68.68,0,0,1-.89.35.77.77,0,0,1-.21-.14l0,0c-2-2.06-3.65-3.76-5.26-5.19a45,45,0,0,0-4.62-3.61c-1.54-1-3-2.11-4.52-3.37a21,21,0,0,0-5.27-3.29,37.44,37.44,0,0,0-6.26-2,41.28,41.28,0,0,0-6.7-1.12,37.85,37.85,0,0,0-6.9-.09,19.85,19.85,0,0,0-6.73,1.51h0a.57.57,0,0,1-.76-.28.6.6,0,0,1,.1-.64"/><path class="cls-1" d="M599.23,682.8c-5-4.34-7.64-11.06-8.25-17.8a39.78,39.78,0,0,1,3.55-19.8,44.51,44.51,0,0,1,11.94-15.8c5-4.2,11-7.38,17.55-8.2-4,5.11-7.62,9.66-10.74,14.42a105,105,0,0,0-8,14.41,71.5,71.5,0,0,0-5.06,15.32,61.14,61.14,0,0,0-.94,17.45"/><path class="cls-1" d="M695.16,744.14a269.67,269.67,0,0,0,30.6,18.57,354.53,354.53,0,0,0,32.44,14.58c11,4.35,22.29,8.26,33.61,12.07s22.78,7.35,34.17,11.37a277.61,277.61,0,0,1-35.61-6.39,262.85,262.85,0,0,1-34.61-10.87,194.2,194.2,0,0,1-32.57-16.28,130.23,130.23,0,0,1-28-23.05"/><path class="cls-1" d="M891.88,633.09c-12.46-3.71-24.55-8-36.63-12.22s-24.1-8.43-36.18-12.48l-36.37-12c-12.16-4.08-24.37-8.23-36.29-13.42a366.46,366.46,0,0,1,38.26,6.21,346.41,346.41,0,0,1,37.43,10.22,320.78,320.78,0,0,1,36,14.61,269,269,0,0,1,33.79,19.1"/><path class="cls-1" d="M899.07,562c-9.48-3.49-18.85-7-28.29-10.29s-18.89-6.52-28.38-9.67l-28.51-9.46c-9.5-3.23-19-6.51-28.37-10.33,10,1.53,19.84,3.63,29.62,6s19.48,5.17,29.05,8.36a298.44,298.44,0,0,1,28.25,10.92A188.1,188.1,0,0,1,899.07,562"/><path class="cls-1" d="M921.54,682.31a3.42,3.42,0,1,1-3.41-3.71,3.56,3.56,0,0,1,3.41,3.71"/><path class="cls-1" d="M340,630.64a19.34,19.34,0,0,1,2.81-11.91,20.32,20.32,0,0,1,10-8.34,22,22,0,0,1,12.77-.94,20.77,20.77,0,0,1,10.63,5.86c-4.12.74-7.7,1-11,1.6a45.45,45.45,0,0,0-8.93,2.32,33.52,33.52,0,0,0-7.82,4.39c-2.64,1.91-5.17,4.36-8.43,7"/><path class="cls-4" d="M876.6,704.59c-.56,6.65,4,12.46,10.26,13s11.71-4.46,12.26-11.11-4-12.47-10.26-13-11.71,4.46-12.26,11.11"/><path class="cls-1" d="M649.78,440.65c-1.24-.3-2.49-.66-3.76-1a16.55,16.55,0,0,1-1.83-.65l-1.82-.71-1.82-.72c-.6-.26-1.17-.55-1.76-.83l-3.5-1.72c-2.27-1.24-4.53-2.52-6.75-3.86l-3.27-2.09c-1.08-.71-2.2-1.38-3.24-2.14A218.18,218.18,0,0,1,598,407.57a249.66,249.66,0,0,1-21.37-22.27,160.64,160.64,0,0,1-17.8-25.22l22.16,21.12q11,10.49,22.15,20.78c7.42,6.86,14.93,13.63,22.57,20.23l5.77,4.91,5.88,4.78a119.32,119.32,0,0,0,12.47,8.75"/><path class="cls-1" d="M521,669a113.69,113.69,0,0,0,3.54,12.14c1.38,3.92,2.91,7.74,4.62,11.44a130.13,130.13,0,0,0,12.16,21,152.68,152.68,0,0,0,15.75,18.66c5.75,5.9,12,11.42,18.41,17.21a79.75,79.75,0,0,1-22.84-12.15,85.12,85.12,0,0,1-18.29-18.78,78.88,78.88,0,0,1-11.48-23.66A69.24,69.24,0,0,1,520.47,682a45.65,45.65,0,0,1,.55-13"/></svg>